<?xml version="1.0"?><svg id="Слой_1" data-name="Слой 1" xmlns="http://www.w3.org/2000/svg" viewBox="0 0 402.29 68.3"><defs><style>.cls-1{fill:none;stroke:#fff;stroke-miterlimit:10;}</style></defs><title>03</title><polygon class="cls-1" points="108 0.5 90.28 0.5 87.96 11.24 105.67 11.24 108 0.5"/><polygon class="cls-1" points="80.62 24.3 85.81 0.5 59.86 0.5 48.41 24.3 42.32 37.19 41.96 24.3 41.25 0.5 15.12 0.5 9.93 24.3 6.53 39.34 0.62 66 19.59 66 26.39 39.34 28.36 30.92 28.54 39.34 29.08 66 42.68 66 56.1 39.34 60.22 30.92 58.43 39.34 52.52 66 71.31 66 77.22 39.34 80.62 24.3"/><path class="cls-1" d="M152.42,211.39c-.54.89-3,7.16-8.41,7-6.8-.18-7.34-8.41-4.65-15.75,2.15-6.09,6.26-11.45,11.1-11.63,5.73-.18,5.19,7.16,5,7.88h18.08a17.79,17.79,0,0,0-2.86-11.28c-2.68-3.94-7.7-7.7-17-8.05a31.5,31.5,0,0,0-23.44,8.05,32.2,32.2,0,0,0-8.77,15c-3.58,13.42,2.33,27.74,19.33,28.1,24.52.54,30.07-19,30.07-19.33Z" transform="translate(-19.91 -163.28)"/><polygon class="cls-1" points="104.24 17.32 86.7 17.32 85.09 24.3 81.69 39.34 75.79 66 93.51 66 99.41 39.34 102.63 24.3 104.24 17.32"/><path class="cls-1" d="M305.26,194.92c-.18-.54.72-3.76-.54-7.34-1.61-4.3-6.44-8.77-20.4-8.95-9.84-.18-19.33,2.33-23.27,8.95a13.66,13.66,0,0,0-2,5.55,11.61,11.61,0,0,0,2.51,9.49c4.83,5.37,14.14,7,17.18,7.52,9.66,1.61,6.8,9.66-.36,9.84-10.38,0-7.87-7.34-7.87-7.34H238l14.5-5.19c1.43-.54,2.33-.89,2.68-2.33a14,14,0,0,0,.36-2.51c.54-5.73-.54-10.92-3.22-15-3.4-5-9.31-8.23-17.9-8.77a31.48,31.48,0,0,0-24,8.77c-1.07.89-1.79,2-2.68,2.86l.72-2.86,2.15-7.7a31.77,31.77,0,0,0-8.41,1.25,18.16,18.16,0,0,0-8.05,5.55l1.43-6.09H179.63l-1.43,7-3.4,15-6.08,26.67h16.82l3.94-17.18a30,30,0,0,1,3.58-9.48c3.76-6.09,8.59-7,11.45-7a23.55,23.55,0,0,0-2.69,7c-3.4,13.42,2.69,27.56,20.76,28.28,14,.36,24.52-7.16,29-15.93-.54,5.55,2,15.93,24.52,16.11,25.59.36,27.56-15.93,27.38-19.33-.18-4.29-1.61-7.16-3.76-9.13-4.3-3.94-11.28-4.65-17.72-6.09-8.05-1.79-6.44-7.87.54-7.87,7.69,0,5.91,6.26,5.91,6.26Zm-81.43,23.44c-5.73-1.07-6.08-8.77-3.76-15.75s7.34-13.24,13.06-12.53c4.83.89,6.08,6.44,5,12.53C236.72,210.85,231,220,223.83,218.36Z" transform="translate(-19.91 -163.28)"/><path class="cls-1" d="M415.86,169H399.57l-2.51,11.63H386.69l.36-1.25c.72-3.58,1.07-5.55,6.62-5.55l2-9.13s-13.78-1.61-19.15,2.51c-3.76,2.86-5,6.26-6.8,13.42H361.1l-1.61,7-.89,4.47h8.95l-2.33,10.56-5.91,26.67h17.36l5.91-26.67,2.33-10.56h9.66l-2.33,10.56-3,14c-1.43,6.44.89,9.31,3,10.74,4.65,3.4,18.79,1.61,18.79,1.61l2.68-11.1s-7,.89-7.7-1.07a8.07,8.07,0,0,1,.18-3.58l2.33-10.56,2.33-10.56h8.23l1.07-4.47,1.43-7h-8.41Z" transform="translate(-19.91 -163.28)"/><path class="cls-1" d="M356.26,187.58c-3.4-4.83-9.13-8.41-17.54-8.77a31.22,31.22,0,0,0-24,8.77,32.72,32.72,0,0,0-8.59,15c-3.4,13.24,2.68,27.56,20.94,28.28,19.69.72,31.68-14.32,32.75-28.28A22.79,22.79,0,0,0,356.26,187.58Zm-13.78,15c-1.25,8.23-7.16,17.36-14.32,15.75-5.73-1.07-6.08-8.77-3.76-15.75s7.52-13.24,13.06-12.53C342.3,191,343.56,196.53,342.48,202.62Z" transform="translate(-19.91 -163.28)"/></svg>