<?xml version="1.0"?><svg id="Слой_1" data-name="Слой 1" xmlns="http://www.w3.org/2000/svg" viewBox="0 0 400 102.57"><defs><style>.cls-1{fill:none;stroke:#fff;stroke-miterlimit:10;}</style></defs><title>04</title><polygon class="cls-1" points="0.5 6.28 19.21 6.28 19.21 55.65 39.76 55.73 39.76 74.36 0.5 74.36 0.5 6.28"/><polygon class="cls-1" points="68.58 74.36 49.79 74.36 49.79 24.99 29.24 24.82 29.24 6.28 68.58 6.28 68.58 74.36"/><rect class="cls-1" x="22.02" y="0.5" width="4.66" height="24.41"/><rect class="cls-1" x="42.73" y="55.49" width="4.58" height="24.33"/><rect class="cls-1" x="92.66" y="3.79" width="15.9" height="73.54"/><path class="cls-1" d="M251.67,187.31h15.74v5.38c5.3-5.06,8.51-6.26,16.62-6.74v12.28c-5.22.4-16.62,4.5-16.62,14v29.3H251.67Z" transform="translate(-25.5 -164.17)"/><path class="cls-1" d="M342,192.36l-.08-5.06H326.09v54.27h15.82V207.94c-.24-4.9,13.73-12.76,13.89,1.12v32.51h15.9V204.16C371.69,188.19,357.24,182.25,342,192.36Z" transform="translate(-25.5 -164.17)"/><path class="cls-1" d="M299.28,185.94c-3.13-.24-6.26-.24-9.15-.32V198a46.84,46.84,0,0,1,9.15.32c3.53.56,5.78,1.77,5.86,4v3.93a22.41,22.41,0,0,0-5.86-2.65,18.87,18.87,0,0,0-4.82-.56C283.7,203,276,211.63,276,222.39s8,19.19,18.7,19.19a21.11,21.11,0,0,0,4.58-.4,17.67,17.67,0,0,0,5.78-2.25l.08,2.65H321V202.32C321,189.55,310,186.66,299.28,185.94Zm0,43a8,8,0,1,1,7.95-7.95A8,8,0,0,1,299.28,228.89Z" transform="translate(-25.5 -164.17)"/><path class="cls-1" d="M409.1,167.8,409,192a19.69,19.69,0,0,0-8.75-3.69,16,16,0,0,0-2.81-.16c-12.6,0-22.88,11.72-22.88,26.09s10.28,26.09,22.88,26.09a15.91,15.91,0,0,0,2.81-.24,22.09,22.09,0,0,0,8.91-4.09l-.08,5.38H425V167.8Zm-8.83,56.6A11,11,0,1,1,411,213.32,10.85,10.85,0,0,1,400.27,224.4Z" transform="translate(-25.5 -164.17)"/><path class="cls-1" d="M191.3,218.29a25,25,0,0,0,.32-4.17c0-15.82-12-28.74-26.65-28.82h-.16c-14.69,0-26.73,12.93-26.73,28.82s12,28.74,26.73,28.74H165c11.24-.08,20.87-7.87,24.73-18.46H173.56c-1.77,2.25-3.85,3.69-8,3.77H165c-4-.24-8.67-3.85-9.39-10H165Zm-35.56-9.71c1-6.34,4.09-9.15,9.23-9.47h.32c5.3-.32,8,3.61,8.91,9.39H165Z" transform="translate(-25.5 -164.17)"/><path class="cls-1" d="M230.72,187.31l-.08,5.78a19,19,0,0,0-9.87-5,15.91,15.91,0,0,0-2.81-.24c-13.33,0-24.17,11.72-24.17,26.09s10.84,26,24.17,26c1,0,1.93,0,2.81-.08a18.9,18.9,0,0,0,10-3.69c2.57,7.38-3.29,15.65-10,15.17-2.65-.16-5.38-1.69-7.71-5.14H193.39c3.45,12.76,15.57,19.75,27.38,20,13.09.32,25.77-7.63,25.77-24.89v-54Zm-10,38.62c-5.94,0-10.84-5.22-10.84-11.56s4.9-11.48,10.84-11.48S231.6,208,231.6,214.36,226.78,225.92,220.76,225.92Z" transform="translate(-25.5 -164.17)"/><path class="cls-1" d="M230.72,187.31l-.08,5.78A18.38,18.38,0,0,0,218,187.87c-13.33,0-24.17,11.72-24.17,26.09s10.84,26,24.17,26c5,0,8.91-1,12.76-3.77,3.53,10.28-9.31,22.24-17.66,10H193.39c7.31,27,53.15,27.94,53.15-4.9v-54Zm-10,38.62c-5.94,0-10.84-5.22-10.84-11.56s4.9-11.48,10.84-11.48S231.6,208,231.6,214.36,226.79,225.92,220.76,225.92Z" transform="translate(-25.5 -164.17)"/></svg>