<?xml version="1.0"?><svg id="Слой_1" data-name="Слой 1" xmlns="http://www.w3.org/2000/svg" viewBox="0 0 397.37 110.1"><defs><style>.cls-1{fill:none;stroke:#fff;stroke-miterlimit:10;}</style></defs><title>05</title><path id="path51" class="cls-1" d="M98.82,253.31l-14-25h50.61L110,174.55,72.77,253.31H28.19L86.55,147h46.94l57.93,106.3H98.82" transform="translate(-27.35 -146.51)"/><path id="path53" class="cls-1" d="M191.64,191.56H247.2c14,0,19.6-.86,19.6-10.76,0-9.47-4.52-10.54-19-10.54H191.42L178.93,147h78.39c37,0,50.82,16.14,50.82,33.35,0,16.57-12.71,34.86-53.41,34.86H236.22v38.09H191.42V191.56h.22" transform="translate(-27.35 -146.51)"/><path id="path55" class="cls-1" d="M424.21,246.86c-13.35,6.24-29.93,9.25-47.59,9.25-53.41,0-71.71-29.69-71.71-54.23,0-31,27.13-54.87,73.86-54.87,17,0,31.87,2.58,44.36,7.32V185.1c-12.92-6.88-24.12-9.9-37.25-9.9-22.4,0-40.7,10.11-40.7,26.25,0,15.93,18.74,26.25,41.13,26.25,12.92,0,23.47-2.58,37.9-9.25v28.4" transform="translate(-27.35 -146.51)"/>
<g></g>
<g></g>
<g></g>
<g></g>
<g></g>
<g></g>
<g></g>
<g></g>
<g></g>
<g></g>
<g></g>
<g></g>
<g></g>
<g></g>
<g></g>
<g></g>
<g></g>
<g></g>
<g></g>
<g></g>
<g></g>
<g></g>
</svg>