<?xml version="1.0"?><svg id="Слой_1" data-name="Слой 1" xmlns="http://www.w3.org/2000/svg" viewBox="0 0 388.28 51.62"><defs><style>.cls-1{fill:none;stroke:#fff;stroke-miterlimit:10;fill-rule:evenodd;}</style></defs><title>07</title><path class="cls-1" d="M197.19,203.09h25.48l-13.45-21.95-24.78,39.64H173.13l30.08-47.43a7.89,7.89,0,0,1,6-3.19,7.79,7.79,0,0,1,5.66,3.19l30.44,47.43H234l-5.31-8.85H202.5l-5.31-8.85Zm117.16,8.85V170.88H304.8v45a4.54,4.54,0,0,0,1.42,3.54,5.41,5.41,0,0,0,3.54,1.42h43.54l5.66-8.85ZM155.78,204.5a16.81,16.81,0,1,0,0-33.63H114v49.91h9.56V179.73h31.5a8,8,0,1,1,0,15.93h-26.9l28.67,25.13h13.8L151.54,204.5ZM54.91,220.79a24.93,24.93,0,0,1-24.78-25.13,24.62,24.62,0,0,1,24.78-24.78h29a24.62,24.62,0,0,1,24.78,24.78,24.93,24.93,0,0,1-24.78,25.13Zm28.32-8.85A16.47,16.47,0,0,0,99.5,195.66a16.17,16.17,0,0,0-16.28-15.93H55.61a16.17,16.17,0,0,0-16.28,15.93,16.47,16.47,0,0,0,16.28,16.28Zm181.93,8.85a24.93,24.93,0,0,1-24.78-25.13,24.62,24.62,0,0,1,24.78-24.78h34.33l-5.66,8.85h-28a16.17,16.17,0,0,0-16.28,15.93,16.47,16.47,0,0,0,16.28,16.28H300.2l-5.31,8.85Zm117.16-8.85a16.35,16.35,0,0,1-15.57-11.68H407.8l5.66-8.85H366.74a16.35,16.35,0,0,1,15.57-11.68h28.32l5.66-8.85H381.6a24.85,24.85,0,0,0-24.78,24.78c0,13.8,11.33,25.13,24.78,25.13h29.73l5.66-8.85Z" transform="translate(-29.63 -169.67)"/></svg>