<?xml version="1.0"?><svg id="Слой_1" data-name="Слой 1" xmlns="http://www.w3.org/2000/svg" viewBox="0 0 388.33 205.29"><defs><style>.cls-1{fill:none;stroke:#fff;stroke-miterlimit:10;}</style></defs><title>09</title><path class="cls-1" d="M181,294.06l-.06,15.45,1.13.19a95.37,95.37,0,0,0,10.72,1.38,65.06,65.06,0,0,0,9.48.18,39.67,39.67,0,0,0,8.89-1.68,24.61,24.61,0,0,0,9.23-4.92,18.61,18.61,0,0,0,5.37-7.7,21.2,21.2,0,0,0-.11-15.51,17.4,17.4,0,0,0-4.82-6.67,20,20,0,0,0-7.07-4.12l-11.65-4.32a6.25,6.25,0,0,1-3.18-3,4,4,0,0,1,.13-3.54,4.62,4.62,0,0,1,.78-1,6.3,6.3,0,0,1,1.19-.94l.53-.3a12.35,12.35,0,0,1,4.15-1.21,24.24,24.24,0,0,1,7.43.08,63.23,63.23,0,0,1,8.62,1.54l.6.13V243.78l-1.11-.24a75.77,75.77,0,0,0-8.76-1.56,45,45,0,0,0-11.52,0,24.91,24.91,0,0,0-13.27,5.33,17.6,17.6,0,0,0-5.67,7.81,21.46,21.46,0,0,0,0,14.52,16.29,16.29,0,0,0,4.07,6.15,23.33,23.33,0,0,0,5.27,3.82,36.29,36.29,0,0,0,8,3.15q1.38.41,2.75.87l1.38.51.4.16a10.32,10.32,0,0,1,3.65,2.25,6.46,6.46,0,0,1,1.63,2.45,5.37,5.37,0,0,1,0,2.59,5.51,5.51,0,0,1-2.67,3.2,13.25,13.25,0,0,1-4.44,1.39,32.26,32.26,0,0,1-6.89.35,78.74,78.74,0,0,1-9-1.2q-2.33-.48-4.63-1.08l-.58-.14" transform="translate(-30.94 -106.62)"/><path class="cls-1" d="M117.61,308.95V291l-.35.15a33.19,33.19,0,0,1-12.93,3.28,19,19,0,0,1-13-3.84,16.66,16.66,0,0,1-5.67-8,19.35,19.35,0,0,1-.38-10.76A16.5,16.5,0,0,1,91,262.6a17.29,17.29,0,0,1,9.06-3.91,29.88,29.88,0,0,1,17.12,3.21l.39.2v-18l-.82-.22a45.85,45.85,0,0,0-16.32-2.14A37.76,37.76,0,0,0,85.89,245,33.32,33.32,0,0,0,74,254.26a35.91,35.91,0,0,0-.65,43.69,34.24,34.24,0,0,0,19,12.2,44.5,44.5,0,0,0,24-.84l1.32-.36" transform="translate(-30.94 -106.62)"/><polyline class="cls-1" points="127.01 203.52 127.01 136.23 110.05 136.23 110.05 203.52 127.01 203.52"/><path class="cls-1" d="M31.44,188.78a8.41,8.41,0,0,0,16.78,0V170.13a8.4,8.4,0,0,0-16.78,0v18.65" transform="translate(-30.94 -106.62)"/><path class="cls-1" d="M77.89,188.78a8.41,8.41,0,0,0,16.78,0V147a8.4,8.4,0,0,0-16.78,0v41.81" transform="translate(-30.94 -106.62)"/><path class="cls-1" d="M124.09,205.61a8.41,8.41,0,0,0,16.78,0V115.18a8.4,8.4,0,0,0-16.78,0v90.43" transform="translate(-30.94 -106.62)"/><path class="cls-1" d="M170.53,188.78a8.41,8.41,0,0,0,16.78,0V147a8.4,8.4,0,0,0-16.78,0v41.81" transform="translate(-30.94 -106.62)"/><path class="cls-1" d="M216.76,188.78a8.41,8.41,0,0,0,16.78,0V170.13a8.4,8.4,0,0,0-16.78,0v18.65" transform="translate(-30.94 -106.62)"/><path class="cls-1" d="M263.16,188.78a8.41,8.41,0,0,0,16.78,0V147a8.4,8.4,0,0,0-16.78,0v41.81" transform="translate(-30.94 -106.62)"/><path class="cls-1" d="M309.38,205.61a8.41,8.41,0,0,0,16.78,0V115.18a8.4,8.4,0,0,0-16.78,0v90.43" transform="translate(-30.94 -106.62)"/><path class="cls-1" d="M355.74,188.78a8.41,8.41,0,0,0,16.78,0V147a8.4,8.4,0,0,0-16.78,0v41.81" transform="translate(-30.94 -106.62)"/><path class="cls-1" d="M402,188.78a8.41,8.41,0,0,0,16.78,0V170.13a8.4,8.4,0,0,0-16.78,0v18.65" transform="translate(-30.94 -106.62)"/><path class="cls-1" d="M294.88,308.95V291l-.35.15a33.19,33.19,0,0,1-12.93,3.28,19,19,0,0,1-13-3.84,16.66,16.66,0,0,1-5.67-8,19.36,19.36,0,0,1-.38-10.76,16.49,16.49,0,0,1,5.77-9.2,17.29,17.29,0,0,1,9.06-3.91,29.89,29.89,0,0,1,17.13,3.21l.38.2v-18l-.82-.22a45.85,45.85,0,0,0-16.32-2.14A37.77,37.77,0,0,0,263.15,245a33.34,33.34,0,0,0-11.94,9.23,35.92,35.92,0,0,0-.65,43.69,34.23,34.23,0,0,0,19,12.2,44.5,44.5,0,0,0,24-.84l1.32-.36" transform="translate(-30.94 -106.62)"/><path class="cls-1" d="M312.75,276.52a35.4,35.4,0,0,0,43,34A34.53,34.53,0,0,0,367.12,247a35.63,35.63,0,0,0-54.37,29.56m24.63-13.8a17.69,17.69,0,1,1-6.54,11.86,17.7,17.7,0,0,1,6.54-11.86" transform="translate(-30.94 -106.62)"/></svg>