<?xml version="1.0" encoding="utf-8"?>
<!-- Generator: Adobe Illustrator 21.1.0, SVG Export Plug-In . SVG Version: 6.00 Build 0)  -->
<svg version="1.1" id="Слой_1" xmlns="http://www.w3.org/2000/svg" xmlns:xlink="http://www.w3.org/1999/xlink" x="0px" y="0px"
	 viewBox="0 0 500 500" style="enable-background:new 0 0 500 500;" xml:space="preserve">
<style type="text/css">
	.st0{fill:none;stroke:#FFFFFF;stroke-width:2;stroke-miterlimit:10;}
	.st1{fill:none;stroke:#FFFFFF;stroke-width:4;stroke-miterlimit:10;}
</style>
<g>
	<g>
		<g>
			<ellipse class="st0" cx="164.3" cy="157.1" rx="2.6" ry="2.1"/>
			<polyline class="st0" points="164.3,155 164.3,134.7 164.3,84 135.8,61.1 135.8,16.3 			"/>
		</g>
		<g>
			<ellipse class="st0" cx="174.6" cy="157.1" rx="2.6" ry="2.1"/>
			<polyline class="st0" points="174.6,154.9 174.6,134.3 174.6,77.5 146.2,54.7 146.2,13.8 			"/>
		</g>
		<g>
			<ellipse class="st0" cx="184.8" cy="157.1" rx="2.6" ry="2.1"/>
			<polyline class="st0" points="184.8,154.9 184.8,134.3 184.8,71.3 157.6,50.4 157.6,13.8 			"/>
		</g>
		<g>
			<ellipse class="st0" cx="195" cy="157" rx="2.6" ry="2.2"/>
			<polyline class="st0" points="195,154.8 195,133.4 195,8.7 			"/>
		</g>
		<g>
			<ellipse class="st0" cx="205.2" cy="157.1" rx="2.6" ry="2.1"/>
			<polyline class="st0" points="205.2,155 205.2,134.7 205.2,100.1 225.6,90.1 225.6,16.3 			"/>
		</g>
		<g>
			<ellipse class="st0" cx="215.4" cy="156.9" rx="2.6" ry="2.3"/>
			<polyline class="st0" points="215.4,154.6 215.4,132.1 215.4,98.5 234.4,89.1 234.4,1 			"/>
		</g>
		<g>
			<ellipse class="st0" cx="225.6" cy="157" rx="2.6" ry="2.2"/>
			<polyline class="st0" points="225.6,154.8 225.6,133.4 225.6,112 225.6,107.2 245.2,98.6 245.2,8.7 			"/>
		</g>
		<g>
			<ellipse class="st0" cx="235.8" cy="157.1" rx="2.6" ry="2.1"/>
			<polyline class="st0" points="235.8,155 235.8,134.7 235.8,123 260.2,114 260.2,48.1 285.1,40.3 285.1,16.3 			"/>
		</g>
		<g>
			<ellipse class="st0" cx="246" cy="157.2" rx="2.6" ry="1.9"/>
			<polyline class="st0" points="246,155.3 246,136.5 246,130.3 269.2,122.6 269.2,61.5 297.4,53.9 297.4,26.5 			"/>
		</g>
		<g>
			<ellipse class="st0" cx="256.2" cy="157.2" rx="2.6" ry="1.9"/>
			<polyline class="st0" points="256.2,155.3 256.2,136.5 282.6,129 282.6,67.7 311.1,60.8 311.1,26.5 			"/>
		</g>
		<g>
			<ellipse class="st0" cx="287.7" cy="157.1" rx="2.6" ry="2.1"/>
			<polyline class="st0" points="287.7,155 287.7,134.7 287.7,100.1 308.1,90.1 308.1,16.3 			"/>
		</g>
		<g>
			<ellipse class="st0" cx="297.9" cy="157.2" rx="2.6" ry="1.9"/>
			<polyline class="st0" points="297.9,155.3 297.9,136.5 297.9,108.3 317,100.4 317,26.5 			"/>
		</g>
		<g>
			<ellipse class="st0" cx="308.1" cy="157" rx="2.6" ry="2.2"/>
			<polyline class="st0" points="308.1,154.8 308.1,133.4 308.1,112 308.1,107.2 327.8,98.6 327.8,8.7 			"/>
		</g>
		<g>
			<ellipse class="st0" cx="318.3" cy="157.1" rx="2.6" ry="2.1"/>
			<polyline class="st0" points="318.3,155 318.3,134.7 318.3,123 342.7,114 342.7,48.1 367.6,40.3 367.6,16.3 			"/>
		</g>
		<g>
			<ellipse class="st0" cx="328.5" cy="157.2" rx="2.6" ry="2"/>
			<polyline class="st0" points="328.5,155.2 328.5,135.6 328.5,129.2 351.7,121.1 351.7,57.8 380,49.9 380,21.4 			"/>
		</g>
		<g>
			<ellipse class="st0" cx="338.7" cy="157.2" rx="2.6" ry="1.9"/>
			<polyline class="st0" points="338.7,155.3 338.7,136.5 365.2,129 365.2,67.7 393.6,60.8 393.6,26.5 			"/>
		</g>
	</g>
	<g>
		<g>
			<ellipse class="st0" cx="164.3" cy="342.9" rx="2.6" ry="2.1"/>
			<polyline class="st0" points="164.3,345 164.3,365.2 164.3,416 135.8,438.9 135.8,483.7 			"/>
		</g>
		<g>
			<ellipse class="st0" cx="174.6" cy="342.9" rx="2.6" ry="2.1"/>
			<polyline class="st0" points="174.6,345.1 174.6,365.7 174.6,422.5 146.2,445.3 146.2,486.2 			"/>
		</g>
		<g>
			<ellipse class="st0" cx="184.8" cy="342.9" rx="2.6" ry="2.1"/>
			<polyline class="st0" points="184.8,345.1 184.8,365.7 184.8,428.7 157.6,449.6 157.6,486.2 			"/>
		</g>
		<g>
			<ellipse class="st0" cx="195" cy="343" rx="2.6" ry="2.2"/>
			<polyline class="st0" points="195,345.2 195,366.6 195,491.3 			"/>
		</g>
		<g>
			<ellipse class="st0" cx="205.2" cy="342.9" rx="2.6" ry="2.1"/>
			<polyline class="st0" points="205.2,345 205.2,365.2 205.2,399.9 225.6,409.8 225.6,483.7 			"/>
		</g>
		<g>
			<ellipse class="st0" cx="215.4" cy="343.1" rx="2.6" ry="2.3"/>
			<polyline class="st0" points="215.4,345.4 215.4,367.9 215.4,401.5 234.4,410.9 234.4,499 			"/>
		</g>
		<g>
			<ellipse class="st0" cx="225.6" cy="343" rx="2.6" ry="2.2"/>
			<polyline class="st0" points="225.6,345.2 225.6,366.6 225.6,388 225.6,392.8 245.2,401.4 245.2,491.3 			"/>
		</g>
		<g>
			<ellipse class="st0" cx="235.8" cy="342.9" rx="2.6" ry="2.1"/>
			<polyline class="st0" points="235.8,345 235.8,365.2 235.8,377 260.2,386 260.2,451.9 285.1,459.7 285.1,483.7 			"/>
		</g>
		<g>
			<ellipse class="st0" cx="246" cy="342.8" rx="2.6" ry="1.9"/>
			<polyline class="st0" points="246,344.7 246,363.5 246,369.7 269.2,377.4 269.2,438.4 297.4,446.1 297.4,473.5 			"/>
		</g>
		<g>
			<ellipse class="st0" cx="256.2" cy="342.8" rx="2.6" ry="1.9"/>
			<polyline class="st0" points="256.2,344.7 256.2,363.5 282.6,371 282.6,432.3 311.1,439.2 311.1,473.5 			"/>
		</g>
		<g>
			<ellipse class="st0" cx="287.7" cy="342.9" rx="2.6" ry="2.1"/>
			<polyline class="st0" points="287.7,345 287.7,365.2 287.7,399.9 308.1,409.8 308.1,483.7 			"/>
		</g>
		<g>
			<ellipse class="st0" cx="297.9" cy="342.8" rx="2.6" ry="1.9"/>
			<polyline class="st0" points="297.9,344.7 297.9,363.5 297.9,391.7 317,399.6 317,473.5 			"/>
		</g>
		<g>
			<ellipse class="st0" cx="308.1" cy="343" rx="2.6" ry="2.2"/>
			<polyline class="st0" points="308.1,345.2 308.1,366.6 308.1,388 308.1,392.8 327.8,401.4 327.8,491.3 			"/>
		</g>
		<g>
			<ellipse class="st0" cx="318.3" cy="342.9" rx="2.6" ry="2.1"/>
			<polyline class="st0" points="318.3,345 318.3,365.2 318.3,377 342.7,386 342.7,451.9 367.6,459.7 367.6,483.7 			"/>
		</g>
		<g>
			<ellipse class="st0" cx="328.5" cy="342.8" rx="2.6" ry="2"/>
			<polyline class="st0" points="328.5,344.8 328.5,364.4 328.5,370.8 351.7,378.8 351.7,442.2 380,450.1 380,478.6 			"/>
		</g>
		<g>
			<ellipse class="st0" cx="338.7" cy="342.8" rx="2.6" ry="1.9"/>
			<polyline class="st0" points="338.7,344.7 338.7,363.5 365.2,371 365.2,432.3 393.6,439.2 393.6,473.5 			"/>
		</g>
	</g>
	<g>
		<g>
			<ellipse class="st0" cx="157.4" cy="336.6" rx="2.1" ry="2.6"/>
			<polyline class="st0" points="155.3,336.6 135,336.6 84.3,336.6 61.4,365.1 16.6,365.1 			"/>
		</g>
		<g>
			<ellipse class="st0" cx="157.3" cy="326.4" rx="2.1" ry="2.6"/>
			<polyline class="st0" points="155.2,326.4 134.6,326.4 77.8,326.4 55,354.8 14,354.8 			"/>
		</g>
		<g>
			<ellipse class="st0" cx="157.3" cy="316.2" rx="2.1" ry="2.6"/>
			<polyline class="st0" points="155.2,316.2 134.6,316.2 71.6,316.2 50.7,343.4 14,343.4 			"/>
		</g>
		<g>
			<ellipse class="st0" cx="157.3" cy="306" rx="2.2" ry="2.6"/>
			<polyline class="st0" points="155.1,306 133.7,306 8.9,306 			"/>
		</g>
		<g>
			<ellipse class="st0" cx="157.4" cy="295.8" rx="2.1" ry="2.6"/>
			<polyline class="st0" points="155.3,295.8 135,295.8 100.4,295.8 90.4,275.4 16.6,275.4 			"/>
		</g>
		<g>
			<ellipse class="st0" cx="157.2" cy="285.6" rx="2.3" ry="2.6"/>
			<polyline class="st0" points="154.8,285.6 132.4,285.6 98.8,285.6 89.4,266.5 1.3,266.5 			"/>
		</g>
		<g>
			<ellipse class="st0" cx="157.3" cy="275.4" rx="2.2" ry="2.6"/>
			<polyline class="st0" points="155.1,275.4 133.7,275.4 112.3,275.4 107.5,275.4 98.9,255.7 8.9,255.7 			"/>
		</g>
		<g>
			<ellipse class="st0" cx="157.4" cy="265.2" rx="2.1" ry="2.6"/>
			<polyline class="st0" points="155.3,265.2 135,265.2 123.3,265.2 114.3,240.8 48.4,240.8 40.6,215.9 16.6,215.9 			"/>
		</g>
		<g>
			<ellipse class="st0" cx="157.5" cy="255" rx="1.9" ry="2.6"/>
			<polyline class="st0" points="155.6,255 136.8,255 130.6,255 122.8,231.8 61.8,231.8 54.2,203.5 26.8,203.5 			"/>
		</g>
		<g>
			<ellipse class="st0" cx="157.5" cy="244.8" rx="1.9" ry="2.6"/>
			<polyline class="st0" points="155.6,244.8 136.8,244.8 129.3,218.3 68,218.3 61.1,189.9 26.8,189.9 			"/>
		</g>
		<g>
			<ellipse class="st0" cx="157.4" cy="213.3" rx="2.1" ry="2.6"/>
			<polyline class="st0" points="155.3,213.3 135,213.3 100.4,213.3 90.4,192.8 16.6,192.8 			"/>
		</g>
		<g>
			<ellipse class="st0" cx="157.5" cy="203" rx="1.9" ry="2.6"/>
			<polyline class="st0" points="155.6,203 136.8,203 108.6,203 100.7,184 26.8,184 			"/>
		</g>
		<g>
			<ellipse class="st0" cx="157.3" cy="192.8" rx="2.2" ry="2.6"/>
			<polyline class="st0" points="155.1,192.8 133.7,192.8 112.3,192.8 107.5,192.8 98.9,173.2 8.9,173.2 			"/>
		</g>
		<g>
			<ellipse class="st0" cx="157.4" cy="182.6" rx="2.1" ry="2.6"/>
			<polyline class="st0" points="155.3,182.6 135,182.6 123.3,182.6 114.3,158.3 48.4,158.3 40.6,133.4 16.6,133.4 			"/>
		</g>
		<g>
			<ellipse class="st0" cx="157.5" cy="172.4" rx="2" ry="2.6"/>
			<polyline class="st0" points="155.4,172.4 135.9,172.4 129.5,172.4 121.4,149.2 58.1,149.2 50.1,121 21.7,121 			"/>
		</g>
		<g>
			<ellipse class="st0" cx="157.5" cy="162.2" rx="1.9" ry="2.6"/>
			<polyline class="st0" points="155.6,162.2 136.8,162.2 129.3,135.8 68,135.8 61.1,107.3 26.8,107.3 			"/>
		</g>
	</g>
	<g>
		<g>
			<ellipse class="st0" cx="343.9" cy="336.6" rx="2.1" ry="2.6"/>
			<polyline class="st0" points="346,336.6 366.2,336.6 417,336.6 439.8,365.1 484.6,365.1 			"/>
		</g>
		<g>
			<ellipse class="st0" cx="343.9" cy="326.4" rx="2.1" ry="2.6"/>
			<polyline class="st0" points="346,326.4 366.7,326.4 423.5,326.4 446.2,354.8 487.2,354.8 			"/>
		</g>
		<g>
			<ellipse class="st0" cx="343.9" cy="316.2" rx="2.1" ry="2.6"/>
			<polyline class="st0" points="346,316.2 366.7,316.2 429.7,316.2 450.5,343.4 487.2,343.4 			"/>
		</g>
		<g>
			<ellipse class="st0" cx="344" cy="306" rx="2.2" ry="2.6"/>
			<polyline class="st0" points="346.2,306 367.5,306 492.3,306 			"/>
		</g>
		<g>
			<ellipse class="st0" cx="343.9" cy="295.8" rx="2.1" ry="2.6"/>
			<polyline class="st0" points="346,295.8 366.2,295.8 400.8,295.8 410.8,275.4 484.6,275.4 			"/>
		</g>
		<g>
			<ellipse class="st0" cx="344.1" cy="285.6" rx="2.3" ry="2.6"/>
			<polyline class="st0" points="346.4,285.6 368.8,285.6 402.5,285.6 411.8,266.5 500,266.5 			"/>
		</g>
		<g>
			<ellipse class="st0" cx="344" cy="275.4" rx="2.2" ry="2.6"/>
			<polyline class="st0" points="346.2,275.4 367.5,275.4 388.9,275.4 393.8,275.4 402.4,255.7 492.3,255.7 			"/>
		</g>
		<g>
			<ellipse class="st0" cx="343.9" cy="265.2" rx="2.1" ry="2.6"/>
			<polyline class="st0" points="346,265.2 366.2,265.2 377.9,265.2 386.9,240.8 452.9,240.8 460.7,215.9 484.6,215.9 			"/>
		</g>
		<g>
			<ellipse class="st0" cx="343.7" cy="255" rx="1.9" ry="2.6"/>
			<polyline class="st0" points="345.7,255 364.5,255 370.6,255 378.4,231.8 439.4,231.8 447.1,203.5 474.4,203.5 			"/>
		</g>
		<g>
			<ellipse class="st0" cx="343.7" cy="244.8" rx="1.9" ry="2.6"/>
			<polyline class="st0" points="345.7,244.8 364.5,244.8 371.9,218.3 433.3,218.3 440.1,189.9 474.4,189.9 			"/>
		</g>
		<g>
			<ellipse class="st0" cx="343.9" cy="213.3" rx="2.1" ry="2.6"/>
			<polyline class="st0" points="346,213.3 366.2,213.3 400.8,213.3 410.8,192.8 484.6,192.8 			"/>
		</g>
		<g>
			<ellipse class="st0" cx="343.7" cy="203" rx="1.9" ry="2.6"/>
			<polyline class="st0" points="345.7,203 364.5,203 392.7,203 400.5,184 474.4,184 			"/>
		</g>
		<g>
			<ellipse class="st0" cx="344" cy="192.8" rx="2.2" ry="2.6"/>
			<polyline class="st0" points="346.2,192.8 367.5,192.8 388.9,192.8 393.8,192.8 402.4,173.2 492.3,173.2 			"/>
		</g>
		<g>
			<ellipse class="st0" cx="343.9" cy="182.6" rx="2.1" ry="2.6"/>
			<polyline class="st0" points="346,182.6 366.2,182.6 377.9,182.6 386.9,158.3 452.9,158.3 460.7,133.4 484.6,133.4 			"/>
		</g>
		<g>
			<ellipse class="st0" cx="343.8" cy="172.4" rx="2" ry="2.6"/>
			<polyline class="st0" points="345.8,172.4 365.3,172.4 371.7,172.4 379.8,149.2 443.2,149.2 451.1,121 479.5,121 			"/>
		</g>
		<g>
			<ellipse class="st0" cx="343.7" cy="162.2" rx="1.9" ry="2.6"/>
			<polyline class="st0" points="345.7,162.2 364.5,162.2 371.9,135.8 433.3,135.8 440.1,107.3 474.4,107.3 			"/>
		</g>
	</g>
	<rect x="161.1" y="160.6" class="st1" width="178.8" height="178.8"/>
</g>
</svg>
