<svg xmlns="http://www.w3.org/2000/svg" viewBox="0 0 55 54" width="55" height="54">
	<style>
		tspan { white-space:pre }
		.shp0 { fill: #1f5993 } 
	</style>
	<path id="иконка" class="shp0" d="M54.99 20.64C54.98 20.58 54.97 20.52 54.95 20.46C54.94 20.41 54.92 20.36 54.9 20.31C54.88 20.26 54.85 20.21 54.81 20.17C54.78 20.12 54.74 20.07 54.69 20.03C54.68 20.02 54.67 20 54.66 19.99L46 13.26L46 6.3C46 4.81 44.79 3.6 43.3 3.6L33.55 3.6L29.64 0.56C28.68 -0.19 27.32 -0.19 26.36 0.56L22.45 3.6L12.7 3.6C11.21 3.6 10 4.81 10 6.3L10 13.26L1.34 19.99C1.33 20 1.32 20.02 1.31 20.03C1.26 20.07 1.22 20.12 1.19 20.17C1.15 20.21 1.12 20.26 1.1 20.31C1.08 20.36 1.06 20.41 1.05 20.46C1.03 20.52 1.02 20.58 1.01 20.64C1.01 20.66 1 20.68 1 20.7L1 51.3C1 51.87 1.19 52.43 1.53 52.89C1.53 52.9 1.53 52.91 1.54 52.91C1.55 52.92 1.56 52.93 1.57 52.94C2.08 53.6 2.86 54 3.7 54L52.3 54C53.14 54 53.93 53.6 54.43 52.93C54.44 52.93 54.45 52.92 54.46 52.91C54.47 52.9 54.47 52.9 54.47 52.89C54.81 52.43 55 51.87 55 51.3L55 20.7C55 20.68 54.99 20.66 54.99 20.64ZM27.46 1.98C27.77 1.74 28.22 1.74 28.53 1.98L30.61 3.6L25.39 3.6L27.46 1.98ZM3.92 52.2L27.46 33.92C27.77 33.67 28.22 33.67 28.53 33.92L52.07 52.2L3.92 52.2ZM53.2 50.8L29.64 32.5C28.68 31.75 27.32 31.75 26.36 32.5L2.8 50.8L2.8 22.07L17.55 33.52C17.94 33.83 18.5 33.76 18.81 33.36C19.11 32.97 19.04 32.4 18.65 32.1L3.67 20.46L10 15.54L10 22.5C10 23 10.4 23.4 10.9 23.4C11.39 23.4 11.8 22.99 11.8 22.5L11.8 6.3C11.8 5.8 12.2 5.4 12.7 5.4L43.3 5.4C43.8 5.4 44.2 5.8 44.2 6.3L44.2 22.5C44.2 23 44.6 23.4 45.1 23.4C45.6 23.4 46 22.99 46 22.5L46 15.54L52.33 20.46L37.32 32.12C37.06 32.32 36.93 32.63 36.97 32.96C37.02 33.28 37.23 33.55 37.53 33.67C37.83 33.79 38.17 33.74 38.42 33.54L53.2 22.07L53.2 50.8L53.2 50.8ZM38.8 21.6L38.8 18C38.8 12.03 33.96 7.2 28 7.2C22.03 7.2 17.2 12.03 17.2 18C17.2 23.96 22.03 28.8 28 28.8C28.5 28.8 28.9 28.4 28.9 27.9C28.9 27.4 28.5 27 28 27C23.03 27 19 22.97 19 18C19 13.03 23.03 9 28 9C32.97 9 37 13.03 37 18L37 21.6C37 22.59 36.19 23.4 35.2 23.4C34.2 23.4 33.4 22.59 33.4 21.6L33.4 18C33.4 17.5 33 17.1 32.5 17.1C32 17.1 31.6 17.5 31.6 18C31.6 19.99 29.99 21.6 28 21.6C26.01 21.6 24.4 19.99 24.4 18C24.4 16.01 26.01 14.4 28 14.4C28.5 14.4 28.9 13.99 28.9 13.5C28.9 13 28.5 12.6 28 12.6C25.58 12.59 23.46 14.19 22.79 16.52C22.13 18.84 23.09 21.32 25.15 22.59C27.21 23.86 29.86 23.61 31.64 21.98C31.83 23.88 33.49 25.3 35.4 25.19C37.31 25.09 38.81 23.51 38.8 21.6Z" />
</svg>