<svg xmlns="http://www.w3.org/2000/svg" viewBox="0 0 47 31" width="47" height="31">
	<style>
		tspan { white-space:pre }
		.shp0 { fill: #2769ab } 
	</style>
	<path id="иконка" class="shp0" d="M43.78 13.72L42.59 8.81C42.91 8.73 43.16 8.44 43.16 8.08L43.16 7.29C43.16 5.57 41.8 4.17 40.13 4.17L34.71 4.17L34.71 2.53C34.71 1.69 34.04 1 33.22 1L5.56 1C4.74 1 4.07 1.69 4.07 2.53L4.07 16C4.07 16.41 4.4 16.74 4.79 16.74C5.19 16.74 5.51 16.41 5.51 16L5.51 2.53C5.51 2.51 5.54 2.49 5.56 2.49L33.22 2.49C33.25 2.49 33.27 2.51 33.27 2.53L33.27 16C33.27 16.41 33.59 16.74 33.99 16.74C34.39 16.74 34.71 16.41 34.71 16L34.71 15.16L43.2 15.16C43.2 15.16 43.21 15.16 43.21 15.16C43.21 15.16 43.21 15.16 43.21 15.16C44.25 15.16 45.14 15.87 45.45 16.84L43.21 16.84C42.81 16.84 42.49 17.17 42.49 17.58L42.49 19.17C42.49 20.45 43.5 21.5 44.74 21.5L45.56 21.5L45.56 24.76L43.68 24.76C43.06 22.92 41.36 21.59 39.37 21.59C37.37 21.59 35.67 22.92 35.05 24.76L34.71 24.76L34.71 19.17C34.71 18.76 34.39 18.43 33.99 18.43C33.59 18.43 33.27 18.76 33.27 19.17L33.27 24.76L18.32 24.76C17.7 22.92 16.01 21.59 14.01 21.59C12.02 21.59 10.32 22.92 9.7 24.76L5.56 24.76C5.54 24.76 5.51 24.74 5.51 24.71L5.51 23.08L8.63 23.08C9.03 23.08 9.35 22.75 9.35 22.34C9.35 21.93 9.03 21.59 8.63 21.59L1.72 21.59C1.32 21.59 1 21.93 1 22.34C1 22.75 1.32 23.08 1.72 23.08L4.07 23.08L4.07 24.71C4.07 25.56 4.74 26.25 5.56 26.25L9.45 26.25C9.45 26.26 9.45 26.28 9.45 26.3C9.45 28.89 11.5 31 14.01 31C16.53 31 18.57 28.89 18.57 26.3C18.57 26.28 18.57 26.26 18.57 26.25L34.8 26.25C34.8 26.26 34.8 26.28 34.8 26.3C34.8 28.89 36.85 31 39.37 31C41.88 31 43.93 28.89 43.93 26.3C43.93 26.28 43.93 26.26 43.93 26.25L46.28 26.25C46.68 26.25 47 25.92 47 25.5L47 17.58C47 15.63 45.6 14 43.78 13.72ZM34.71 5.65L40.13 5.65C41.01 5.65 41.72 6.39 41.72 7.29L41.72 7.34L34.71 7.34L34.71 5.65ZM34.71 13.67L34.71 8.82L41.11 8.82L42.28 13.67L34.71 13.67L34.71 13.67ZM14.01 29.51C12.29 29.51 10.89 28.07 10.89 26.3C10.89 24.52 12.29 23.08 14.01 23.08C15.73 23.08 17.13 24.52 17.13 26.3C17.13 28.07 15.73 29.51 14.01 29.51ZM39.37 29.51C37.64 29.51 36.24 28.07 36.24 26.3C36.24 24.52 37.64 23.08 39.37 23.08C41.09 23.08 42.49 24.52 42.49 26.3C42.49 28.07 41.09 29.51 39.37 29.51ZM45.56 20.01L44.74 20.01C44.29 20.01 43.93 19.63 43.93 19.17L43.93 18.33L45.56 18.33L45.56 20.01L45.56 20.01ZM14.01 24.76C13.19 24.76 12.52 25.45 12.52 26.3C12.52 27.14 13.19 27.83 14.01 27.83C14.83 27.83 15.5 27.14 15.5 26.3C15.5 25.45 14.83 24.76 14.01 24.76ZM39.37 24.76C38.54 24.76 37.88 25.45 37.88 26.3C37.88 27.14 38.54 27.83 39.37 27.83C40.19 27.83 40.85 27.14 40.85 26.3C40.85 25.45 40.19 24.76 39.37 24.76ZM30.91 21.59L20.16 21.59C19.76 21.59 19.44 21.93 19.44 22.34C19.44 22.75 19.76 23.08 20.16 23.08L30.91 23.08C31.31 23.08 31.63 22.75 31.63 22.34C31.63 21.93 31.31 21.59 30.91 21.59ZM12.48 18.43L3.26 18.43C2.86 18.43 2.54 18.76 2.54 19.17C2.54 19.58 2.86 19.91 3.26 19.91L12.48 19.91C12.87 19.91 13.2 19.58 13.2 19.17C13.2 18.76 12.87 18.43 12.48 18.43ZM26.05 8.35C25.76 8.06 25.31 8.06 25.03 8.35L18.62 14.95L15.29 11.51C15.01 11.22 14.55 11.22 14.27 11.51C13.99 11.8 13.99 12.27 14.27 12.56L18.11 16.53C18.25 16.67 18.44 16.74 18.62 16.74C18.81 16.74 18.99 16.67 19.13 16.53L26.05 9.4C26.33 9.11 26.33 8.64 26.05 8.35Z" />
</svg>