<svg xmlns="http://www.w3.org/2000/svg" viewBox="0 0 44 43" width="44" height="43">
	<style>
		tspan { white-space:pre }
		.shp0 { fill: #ffffff } 
	</style>
	<path id="иконка" class="shp0" d="M30.82 1L13.18 1C11.48 1 10.1 2.38 10.1 4.08L10.1 39.92C10.1 41.62 11.48 43 13.18 43L30.82 43C32.52 43 33.9 41.62 33.9 39.92L33.9 4.08C33.9 2.38 32.52 1 30.82 1ZM11.5 6.6L32.5 6.6L32.5 33.2L11.5 33.2L11.5 6.6ZM13.18 2.4L30.82 2.4C31.75 2.4 32.5 3.16 32.5 4.08L32.5 5.2L11.5 5.2L11.5 4.08C11.5 3.16 12.25 2.4 13.18 2.4ZM30.82 41.6L13.18 41.6C12.25 41.6 11.5 40.84 11.5 39.92L11.5 34.6L32.5 34.6L32.5 39.92C32.5 40.84 31.75 41.6 30.82 41.6ZM22 35.3C20.46 35.3 19.2 36.56 19.2 38.1C19.2 39.64 20.46 40.9 22 40.9C23.54 40.9 24.8 39.64 24.8 38.1C24.8 36.56 23.54 35.3 22 35.3ZM22 39.5C21.23 39.5 20.6 38.87 20.6 38.1C20.6 37.33 21.23 36.7 22 36.7C22.77 36.7 23.4 37.33 23.4 38.1C23.4 38.87 22.77 39.5 22 39.5ZM19.2 4.5L22 4.5C22.39 4.5 22.7 4.19 22.7 3.8C22.7 3.41 22.39 3.1 22 3.1L19.2 3.1C18.81 3.1 18.5 3.41 18.5 3.8C18.5 4.19 18.81 4.5 19.2 4.5ZM24.1 4.5L24.8 4.5C25.19 4.5 25.5 4.19 25.5 3.8C25.5 3.41 25.19 3.1 24.8 3.1L24.1 3.1C23.71 3.1 23.4 3.41 23.4 3.8C23.4 4.19 23.71 4.5 24.1 4.5ZM40.63 4.2C40.36 3.92 39.92 3.92 39.64 4.2C39.37 4.47 39.37 4.91 39.64 5.19C42.26 7.8 42.26 12.06 39.64 14.67C39.37 14.95 39.37 15.39 39.64 15.66C39.78 15.8 39.96 15.87 40.14 15.87C40.32 15.87 40.49 15.8 40.63 15.66C43.79 12.5 43.79 7.36 40.63 4.2ZM37.68 5.79C37.41 5.52 36.97 5.52 36.69 5.79C36.42 6.07 36.42 6.51 36.69 6.78C37.56 7.65 38.04 8.8 38.04 10.03C38.04 11.26 37.56 12.41 36.69 13.28C36.42 13.55 36.42 13.99 36.69 14.26C36.83 14.4 37.01 14.47 37.19 14.47C37.37 14.47 37.55 14.4 37.68 14.26C38.81 13.14 39.44 11.63 39.44 10.03C39.44 8.43 38.81 6.92 37.68 5.79ZM4.36 5.19C4.63 4.91 4.63 4.47 4.36 4.2C4.08 3.92 3.64 3.92 3.37 4.2C0.21 7.36 0.21 12.5 3.37 15.66C3.5 15.8 3.68 15.87 3.86 15.87C4.04 15.87 4.22 15.8 4.36 15.66C4.63 15.39 4.63 14.95 4.36 14.67C1.74 12.06 1.74 7.8 4.36 5.19ZM7.31 5.6C7.03 5.32 6.59 5.32 6.32 5.6C5.19 6.73 4.56 8.23 4.56 9.83C4.56 11.44 5.19 12.94 6.32 14.07C6.45 14.21 6.63 14.28 6.81 14.28C6.99 14.28 7.17 14.21 7.31 14.07C7.58 13.8 7.58 13.36 7.31 13.08C6.44 12.22 5.96 11.06 5.96 9.83C5.96 8.61 6.44 7.45 7.31 6.59C7.58 6.32 7.58 5.87 7.31 5.6Z" />
</svg>