<svg xmlns="http://www.w3.org/2000/svg" viewBox="0 0 46 40" width="46" height="40">
	<style>
		tspan { white-space:pre }
		.shp0 { fill: #ffffff } 
	</style>
	<path id="иконка" class="shp0" d="M39.52 26.61L39.52 19.22L23.28 19.22L23.28 13.39C26.37 13.01 28.77 10.39 28.77 7.22C28.77 3.79 25.96 1 22.5 1C19.04 1 16.23 3.79 16.23 7.22C16.23 10.39 18.63 13.01 21.72 13.39L21.72 19.22L5.48 19.22L5.48 26.61C2.4 26.99 0 29.61 0 32.78C0 36.21 2.81 39 6.27 39C9.72 39 12.53 36.21 12.53 32.78C12.53 29.61 10.14 26.99 7.05 26.61L7.05 20.78L21.72 20.78L21.72 26.61C18.63 26.99 16.23 29.61 16.23 32.78C16.23 36.21 19.04 39 22.5 39C25.96 39 28.77 36.21 28.77 32.78C28.77 29.61 26.37 26.99 23.28 26.61L23.28 20.78L37.95 20.78L37.95 26.61C34.86 26.99 32.47 29.61 32.47 32.78C32.47 36.21 35.28 39 38.73 39C42.19 39 45 36.21 45 32.78C45 29.61 42.6 26.99 39.52 26.61ZM17.8 7.22C17.8 4.65 19.91 2.56 22.5 2.56C25.09 2.56 27.2 4.65 27.2 7.22C27.2 9.8 25.09 11.89 22.5 11.89C19.91 11.89 17.8 9.8 17.8 7.22ZM10.97 32.78C10.97 35.35 8.86 37.44 6.27 37.44C3.67 37.44 1.57 35.35 1.57 32.78C1.57 30.2 3.67 28.11 6.27 28.11C8.86 28.11 10.97 30.2 10.97 32.78ZM27.2 32.78C27.2 35.35 25.09 37.44 22.5 37.44C19.91 37.44 17.8 35.35 17.8 32.78C17.8 30.2 19.91 28.11 22.5 28.11C25.09 28.11 27.2 30.2 27.2 32.78ZM38.73 37.44C36.14 37.44 34.03 35.35 34.03 32.78C34.03 30.2 36.14 28.11 38.73 28.11C41.33 28.11 43.43 30.2 43.43 32.78C43.43 35.35 41.33 37.44 38.73 37.44Z" />
</svg>