<?xml version="1.0" encoding="utf-8"?>
<!-- Generator: Adobe Illustrator 21.1.0, SVG Export Plug-In . SVG Version: 6.00 Build 0)  -->
<svg version="1.1" id="Слой_1" xmlns="http://www.w3.org/2000/svg" xmlns:xlink="http://www.w3.org/1999/xlink" x="0px" y="0px"
	 viewBox="0 0 500 500" style="enable-background:new 0 0 500 500;" xml:space="preserve">
<style type="text/css">
	.st0{fill:none;stroke:#FFFFFF;stroke-miterlimit:10; stroke-width:3px;}
	.st1{fill:none;stroke:#FFFFFF;stroke-width:0.75;stroke-miterlimit:10;}
	.st2{fill:none;stroke:#FFFFFF;stroke-width:0.75;stroke-miterlimit:10;stroke-dasharray:3.3339,3.3339;}
	.st3{fill:none;stroke:#FFFFFF;stroke-width:0.75;stroke-miterlimit:10;stroke-dasharray:4.9045,4.9045;}
	.st4{fill:none;stroke:#FFFFFF;stroke-width:0.75;stroke-miterlimit:10;stroke-dasharray:4.8511,4.8511;}
	.st5{fill:none;stroke:#FFFFFF;stroke-width:0.75;stroke-miterlimit:10;stroke-dasharray:3.3452,3.3452;}
	.st6{fill:none;stroke:#FFFFFF;stroke-width:0.75;stroke-miterlimit:10;stroke-dasharray:2.5321,2.5321;}
	.st7{opacity:0.7;fill:none;stroke:#FFFFFF;stroke-miterlimit:10;}
</style>
<path id="XMLID_15_" class="st0" d="M5.7,367.3l0.4,6.4c0.2,4.3,3.9,7.7,8.8,8.4l433.8,59.5c3.6,0.5,7.3-1,9.4-3.9l5.6-7.5
	L5.7,367.3z"/>
<path id="XMLID_14_" class="st0" d="M11.5,372.9l444.2,61.3c4.5,0.6,8.7-2.8,8.7-7.1l-0.6-116.8c0-3.4-2.6-6.1-6.2-6.5L92.6,262.2
	c-3.2-0.4-6.4,0.9-8.2,3.2L7,363.5C4,367.2,6.4,372.2,11.5,372.9z"/>
<path class="st0" d="M476.5,56.1L120.3,41c-10.8-0.5-20.1,7.2-20.9,17.3L84.1,249.9c-0.5,6.3,4.4,11.8,11.1,12.6L455.5,304
	c7,0.8,13.4-3.9,14.2-10.4l25.9-216.9C496.8,66.1,488.1,56.6,476.5,56.1z M451.3,277.8l-349.9-34l13.8-184l360,17.7L451.3,277.8z"/>
<polygon id="XMLID_17_" class="st0" points="100.5,270.2 60.5,321.6 441,371.9 442.7,309.5 "/>
<path id="XMLID_18_" class="st0" d="M156.5,374l13.8-26.4c1.8-3.4,5.7-5.3,9.7-4.8l125.6,16c5.3,0.7,9,5.4,7.9,10.3l-6.1,28.8
	c-1,4.6-5.6,7.6-10.6,6.9l-133.3-18.4C157.3,385.6,153.7,379.3,156.5,374z"/>
<g id="XMLID_56_">
	<g id="XMLID_20_">
		<line class="st1" x1="75.4" y1="312" x2="80.4" y2="312.6"/>
		<line class="st2" x1="90.3" y1="313.9" x2="421.7" y2="355.3"/>
		<line class="st1" x1="426.6" y1="355.9" x2="431.6" y2="356.6"/>
	</g>
	<g id="XMLID_21_">
		<line class="st1" x1="83.4" y1="302.4" x2="90.9" y2="303.4"/>
		<line class="st3" x1="105.5" y1="305.2" x2="418.4" y2="343.9"/>
		<line class="st1" x1="425.7" y1="344.8" x2="433.2" y2="345.7"/>
	</g>
	<g id="XMLID_22_">
		<line class="st1" x1="88.5" y1="293.5" x2="95.9" y2="294.4"/>
		<line class="st4" x1="110.3" y1="296.2" x2="420" y2="334.1"/>
		<line class="st1" x1="427.2" y1="335" x2="434.6" y2="335.9"/>
	</g>
	<g id="XMLID_23_">
		<line class="st1" x1="96.5" y1="284.4" x2="101.5" y2="285"/>
		<line class="st5" x1="111.4" y1="286.2" x2="424.3" y2="324"/>
		<line class="st1" x1="429.3" y1="324.6" x2="434.2" y2="325.2"/>
	</g>
	<g id="XMLID_24_">
		<line class="st1" x1="104.1" y1="276.2" x2="107.8" y2="276.7"/>
		<line class="st6" x1="115.3" y1="277.6" x2="427.3" y2="315.3"/>
		<line class="st1" x1="431.1" y1="315.7" x2="434.8" y2="316.2"/>
	</g>
</g>
<path id="XMLID_64_" class="st7" d="M309.3,389.2l-149.9-20.7l-2.9,5.5c-1.5,2.9-1.1,6,0.6,8.5c1.4,1.4,3.2,2.4,5.5,2.7l136,18.8
	c1.8,0.3,3.6,0,5.2-0.6c1.8-1.3,3.2-3.1,3.7-5.4L309.3,389.2z"/>
<path id="XMLID_62_" class="st0" d="M158.7,369.9l-2.2,4.1c-2.8,5.3,0.8,11.6,7.1,12.4l133.3,18.4c4.9,0.7,9.6-2.4,10.6-6.9l1.5-7.3
	L158.7,369.9z"/>
<path id="XMLID_60_" class="st0" d="M228,395.3l68.9,9.5c4.9,0.7,9.6-2.4,10.6-6.9l1.5-7.3l-76-10.5L228,395.3z"/>
</svg>
