<?xml version="1.0" encoding="utf-8" standalone="no"?>
<svg xmlns="http://www.w3.org/2000/svg" xmlns:xlink="http://www.w3.org/1999/xlink" width="205" height="400" stroke="rgb(48, 153, 227)">
	<style>
.text-container{
text-align: center;
width: 50px;
fill: red !important;
 stroke: red;
font-size: 12px;
}

.block-container{
	cursor: pointer
}
.block-container-link{
transition: all 0.8s;
transform-origin: center;
}
.block-container-link .block-container-icon{
fill: white;
stroke: white;
transition: all 0.8s;
}
.block-container-link:hover .block-container-icon{
	fill:  rgb(48, 153, 227) ;
	stroke:  rgb(48, 153, 227) ;
	transform: scale(1.05) translate(-8px, -13px);
}

</style>
	<symbol id="s1">
	<path  width="34" height="34"  class="" fill="rgb(48, 153, 227)" stroke="rgb(48, 153, 227)" d="M33.77 33.68L22.94 22.85C25.01 20.53 26.27 17.48 26.27 14.14C26.27 6.89 20.38 1 13.14 1C5.89 1 0 6.89 0 14.14C0 21.38 5.89 27.27 13.14 27.27C16.48 27.27 19.53 26.01 21.85 23.94L32.68 34.77C32.83 34.92 33.03 35 33.23 35C33.42 35 33.62 34.92 33.77 34.77C34.07 34.47 34.07 33.98 33.77 33.68ZM13.14 25.73C6.74 25.73 1.55 20.53 1.55 14.14C1.55 7.74 6.74 2.55 13.14 2.55C19.53 2.55 24.73 7.74 24.73 14.14C24.73 20.53 19.53 25.73 13.14 25.73ZM13.14 13.36C15.27 13.36 17 11.63 17 9.5C17 7.37 15.27 5.64 13.14 5.64C11.01 5.64 9.27 7.37 9.27 9.5C9.27 11.63 11.01 13.36 13.14 13.36ZM13.14 7.18C14.41 7.18 15.45 8.22 15.45 9.5C15.45 10.78 14.41 11.82 13.14 11.82C11.86 11.82 10.82 10.78 10.82 9.5C10.82 8.22 11.86 7.18 13.14 7.18ZM18.42 15.73C17.19 15 15.27 14.14 13.14 14.14C11.01 14.14 9.09 15 7.85 15.73C6.82 16.34 6.18 17.52 6.18 18.81L6.18 19.3C6.18 20.29 6.92 21.09 7.84 21.09L18.44 21.09C19.35 21.09 20.09 20.29 20.09 19.3L20.09 18.81C20.09 17.52 19.45 16.34 18.42 15.73ZM18.55 19.3C18.55 19.46 18.45 19.55 18.43 19.55L7.84 19.55C7.82 19.55 7.73 19.46 7.73 19.3L7.73 18.81C7.73 18.07 8.08 17.39 8.64 17.06C9.7 16.43 11.35 15.68 13.14 15.68C14.92 15.68 16.57 16.43 17.64 17.06C18.19 17.39 18.55 18.07 18.55 18.81L18.55 19.3Z" />
		<text kerning="auto"   class="text-container"     x="0" y="50">
			О компании
	    	</text>
    	</symbol>
	<symbol id="s2">
	<path  width="34" height="34"  class="" fill="rgb(48, 153, 227)" stroke="rgb(48, 153, 227)" d="M33.77 33.68L22.94 22.85C25.01 20.53 26.27 17.48 26.27 14.14C26.27 6.89 20.38 1 13.14 1C5.89 1 0 6.89 0 14.14C0 21.38 5.89 27.27 13.14 27.27C16.48 27.27 19.53 26.01 21.85 23.94L32.68 34.77C32.83 34.92 33.03 35 33.23 35C33.42 35 33.62 34.92 33.77 34.77C34.07 34.47 34.07 33.98 33.77 33.68ZM13.14 25.73C6.74 25.73 1.55 20.53 1.55 14.14C1.55 7.74 6.74 2.55 13.14 2.55C19.53 2.55 24.73 7.74 24.73 14.14C24.73 20.53 19.53 25.73 13.14 25.73ZM13.14 13.36C15.27 13.36 17 11.63 17 9.5C17 7.37 15.27 5.64 13.14 5.64C11.01 5.64 9.27 7.37 9.27 9.5C9.27 11.63 11.01 13.36 13.14 13.36ZM13.14 7.18C14.41 7.18 15.45 8.22 15.45 9.5C15.45 10.78 14.41 11.82 13.14 11.82C11.86 11.82 10.82 10.78 10.82 9.5C10.82 8.22 11.86 7.18 13.14 7.18ZM18.42 15.73C17.19 15 15.27 14.14 13.14 14.14C11.01 14.14 9.09 15 7.85 15.73C6.82 16.34 6.18 17.52 6.18 18.81L6.18 19.3C6.18 20.29 6.92 21.09 7.84 21.09L18.44 21.09C19.35 21.09 20.09 20.29 20.09 19.3L20.09 18.81C20.09 17.52 19.45 16.34 18.42 15.73ZM18.55 19.3C18.55 19.46 18.45 19.55 18.43 19.55L7.84 19.55C7.82 19.55 7.73 19.46 7.73 19.3L7.73 18.81C7.73 18.07 8.08 17.39 8.64 17.06C9.7 16.43 11.35 15.68 13.14 15.68C14.92 15.68 16.57 16.43 17.64 17.06C18.19 17.39 18.55 18.07 18.55 18.81L18.55 19.3Z" />
		<text kerning="auto"   class="text-container"     x="0" y="50">
			Патнеры
	    	</text>
    	</symbol>
	<symbol id="s3">
	<path  width="34" height="34"  class="" fill="rgb(48, 153, 227)" stroke="rgb(48, 153, 227)" d="M33.77 33.68L22.94 22.85C25.01 20.53 26.27 17.48 26.27 14.14C26.27 6.89 20.38 1 13.14 1C5.89 1 0 6.89 0 14.14C0 21.38 5.89 27.27 13.14 27.27C16.48 27.27 19.53 26.01 21.85 23.94L32.68 34.77C32.83 34.92 33.03 35 33.23 35C33.42 35 33.62 34.92 33.77 34.77C34.07 34.47 34.07 33.98 33.77 33.68ZM13.14 25.73C6.74 25.73 1.55 20.53 1.55 14.14C1.55 7.74 6.74 2.55 13.14 2.55C19.53 2.55 24.73 7.74 24.73 14.14C24.73 20.53 19.53 25.73 13.14 25.73ZM13.14 13.36C15.27 13.36 17 11.63 17 9.5C17 7.37 15.27 5.64 13.14 5.64C11.01 5.64 9.27 7.37 9.27 9.5C9.27 11.63 11.01 13.36 13.14 13.36ZM13.14 7.18C14.41 7.18 15.45 8.22 15.45 9.5C15.45 10.78 14.41 11.82 13.14 11.82C11.86 11.82 10.82 10.78 10.82 9.5C10.82 8.22 11.86 7.18 13.14 7.18ZM18.42 15.73C17.19 15 15.27 14.14 13.14 14.14C11.01 14.14 9.09 15 7.85 15.73C6.82 16.34 6.18 17.52 6.18 18.81L6.18 19.3C6.18 20.29 6.92 21.09 7.84 21.09L18.44 21.09C19.35 21.09 20.09 20.29 20.09 19.3L20.09 18.81C20.09 17.52 19.45 16.34 18.42 15.73ZM18.55 19.3C18.55 19.46 18.45 19.55 18.43 19.55L7.84 19.55C7.82 19.55 7.73 19.46 7.73 19.3L7.73 18.81C7.73 18.07 8.08 17.39 8.64 17.06C9.7 16.43 11.35 15.68 13.14 15.68C14.92 15.68 16.57 16.43 17.64 17.06C18.19 17.39 18.55 18.07 18.55 18.81L18.55 19.3Z" />
		<text kerning="auto"   class="text-container"     x="0" y="50">
			Клиенты
	    	</text>
    	</symbol>
	<symbol id="s4">
	<path  width="34" height="34"  class=""   d="M33.77 33.68L22.94 22.85C25.01 20.53 26.27 17.48 26.27 14.14C26.27 6.89 20.38 1 13.14 1C5.89 1 0 6.89 0 14.14C0 21.38 5.89 27.27 13.14 27.27C16.48 27.27 19.53 26.01 21.85 23.94L32.68 34.77C32.83 34.92 33.03 35 33.23 35C33.42 35 33.62 34.92 33.77 34.77C34.07 34.47 34.07 33.98 33.77 33.68ZM13.14 25.73C6.74 25.73 1.55 20.53 1.55 14.14C1.55 7.74 6.74 2.55 13.14 2.55C19.53 2.55 24.73 7.74 24.73 14.14C24.73 20.53 19.53 25.73 13.14 25.73ZM13.14 13.36C15.27 13.36 17 11.63 17 9.5C17 7.37 15.27 5.64 13.14 5.64C11.01 5.64 9.27 7.37 9.27 9.5C9.27 11.63 11.01 13.36 13.14 13.36ZM13.14 7.18C14.41 7.18 15.45 8.22 15.45 9.5C15.45 10.78 14.41 11.82 13.14 11.82C11.86 11.82 10.82 10.78 10.82 9.5C10.82 8.22 11.86 7.18 13.14 7.18ZM18.42 15.73C17.19 15 15.27 14.14 13.14 14.14C11.01 14.14 9.09 15 7.85 15.73C6.82 16.34 6.18 17.52 6.18 18.81L6.18 19.3C6.18 20.29 6.92 21.09 7.84 21.09L18.44 21.09C19.35 21.09 20.09 20.29 20.09 19.3L20.09 18.81C20.09 17.52 19.45 16.34 18.42 15.73ZM18.55 19.3C18.55 19.46 18.45 19.55 18.43 19.55L7.84 19.55C7.82 19.55 7.73 19.46 7.73 19.3L7.73 18.81C7.73 18.07 8.08 17.39 8.64 17.06C9.7 16.43 11.35 15.68 13.14 15.68C14.92 15.68 16.57 16.43 17.64 17.06C18.19 17.39 18.55 18.07 18.55 18.81L18.55 19.3Z" />
		<text kerning="auto"   class="text-container"     x="0" y="50">
			Карьера
	    	</text>
    	</symbol>

	<path fill="none"   stroke-width="2" d="M205,10 a190,190 0 1,0 0,380" />
	<path fill="none" stroke-dasharray="4 1"   stroke-width="1" d="M205,25 a175,175 0 1,0 0,350" />
	<path fill="none" stroke-dasharray="4 1"  stroke-width="1" d="M205,30 a170,170 0 1,0 0,340" />
	<path fill="none"   stroke-width="3" d="M205,38 a162,162 0 1,0 0,324" />

	<path fill="red"   stroke-width="3" d="M205,130 a70,70 0 1,0 0,140" />

	

	<path fill="none"   stroke-width="1" d="M155.5,150.5 L90.45,85.45" /> //Line1

	<path fill="none"   stroke-width="1" d="M135,200 L43,200" /> //Line2

	<path fill="none"   stroke-width="1" d="M155.5,249.5 L90.45,314.45" /> //Line3

	<path   stroke="red" class="block-container" stroke-width="1" d="M155.5,150.5 L90.45,85.45 a162,162 0 0,1 114.65,-47.65 L205,130 a70,70 0 1,1 -49.5,20.5" /> // block1

	<path   stroke="none"  fill="none" stroke-width="1" d="M135,200 L43,200 a162,162 0 0,1 46.65,-114.65 L155.5,150.5 a70,70 0 1,1   -20.5,49.5" /> // block2

	<path   stroke="none" fill="none"  stroke-width="1" d="M155.5,249.5 L90.45,314.45 a162,162 0 0,1 -47.45,-114.45 L135,200 a70,70 0 0,0 20.5,49.5" /> // block3

	<a class="block-container-link" href="/some">
		<path     stroke="red"  stroke-width="1" d="M205,270 L205,362 a162,162 0 0,1 -114.65,-47.65 L155.5,249.5 a70,70 0 0,0 49.5,21" /> // block4
		<use class="block-container-icon" xlink:href="#s4" x="140" y="270"/>
	</a> 
	
	<use xlink:href="#s1" x="140" y="60"/>
	<use xlink:href="#s2" x="80" y="120"/>
	<use xlink:href="#s3" x="80" y="210"/>
	
</svg>

