<?xml version="1.0"?><svg id="01-svg"  xmlns="http://www.w3.org/2000/svg" viewBox="0 0 410.02 154.27"><defs><style>.cls-1{fill:none;stroke:#fff;stroke-miterlimit:10;}</style></defs><title>01</title><path class="cls-1" d="M77.39,131.74c-20.23,0-37.53,10.56-46.75,25.4C22.78,171.07,21,193.54,21,208.37s1.8,37.53,9.66,51.24c9,14.83,26.29,25.4,46.75,25.4H373.6c20.23,0,37.53-10.56,46.75-25.4,7.87-13.71,9.66-36.41,9.66-51.24s-1.8-37.53-9.66-51.24c-9-14.83-26.29-25.4-46.75-25.4Z" transform="translate(-20.48 -131.24)"/><path class="cls-1" d="M274.49,200.06h24.95v-.67c0-11.46-4.49-12.14-12.81-12.14-10.11-.22-11.91,2.92-12.14,12.81" transform="translate(-20.48 -131.24)"/><path class="cls-1" d="M99.42,187.7c8.09,0,12.59.9,12.59,11.91v.45H87.51c.22-9.44,2.25-12.36,11.91-12.36" transform="translate(-20.48 -131.24)"/><path class="cls-1" d="M64.81,208.82c0,26.74,6.74,36.41,35.06,36.41,10.56,0,19.1-.9,25.4-4.27,5.84-3.37,9.44-9.21,9.44-19.78H112.45c-.22,7.64-5.39,8.54-12.59,8.54-10.34,0-12.36-4.27-12.36-17.08v-.45H134.7v-3.37c0-29.22-7.87-36.63-34.83-36.63-28.77,0-35.06,9-35.06,36.63" transform="translate(-20.48 -131.24)"/><path class="cls-1" d="M149.76,195.56c0,14.38,4.94,20.9,35.06,20.9,2.7,0,7-.22,9.44.9,2.25,1.12,3.37,3.15,3.37,6.74,0,6.29-2.25,7-13,7-5.84,0-11.91-.22-12.36-8.09H149.76c.22,15.73,7.64,20.9,21.57,22,4.27.22,8.76.22,13.48.22,19.1,0,35.06-3.15,35.06-23.82,0-19.78-10.34-21.13-35.06-21.8-12.36-.22-13-2.92-13-7,0-4.72.45-6.29,13-6.29,4.49,0,9.21.45,10.11,6.07h21.35V189.5c0-17.08-18-17.3-31.46-17.3-20.45,0-35.06.45-35.06,23.37" transform="translate(-20.48 -131.24)"/><polygon class="cls-1" points="315.36 40.95 371.09 40.95 371.09 57.36 354.46 57.36 354.46 113.32 331.76 113.32 331.76 57.36 315.13 57.36 315.13 40.95 315.36 40.95"/><path class="cls-1" d="M252.24,208.37c0-27.64,6.07-36.41,34.83-36.41,26.74,0,34.61,7.19,34.61,36.41v3.15H274.49v.67c0,12.81,2,17.3,12.59,17.3,7,0,12.36-.67,12.81-8.54h21.8c-.22,10.11-3.6,16-9.44,19.33-6.07,3.37-14.61,4.27-25.17,4.27-28.09,0-34.83-9.44-34.83-36.18" transform="translate(-20.48 -131.24)"/><path class="cls-1" d="M48.4,258c-11.46-12.36-13.93-31.46-13.93-49.67s2.47-37.31,13.93-49.67c7.19-7.64,21.13-13.48,32.81-13.48h152.6v126.3H81.21c-11.91,0-25.62-5.84-32.81-13.48" transform="translate(-20.48 -131.24)"/></svg>