<?xml version="1.0"?><svg id="Слой_1" data-name="Слой 1" xmlns="http://www.w3.org/2000/svg" viewBox="0 0 369.98 376.27"><defs><style>.cls-1{fill:none;stroke:#fff;stroke-miterlimit:10;fill-rule:evenodd;}</style></defs><title>02</title><g id="g3483"><path id="path3475" class="cls-1" d="M95.55,340.66v61.27H83.12V377H55v24.89H42.61V340.66H55v24.71H83.11V340.66Z" transform="translate(-39.34 -27.07)"/><path id="path3477" class="cls-1" d="M153.11,340.66h12.43v34.58c0,17.54-9.66,27.61-26.52,27.61-16.68,0-26.27-9.89-26.27-27.13v-35h12.43v34.6c0,10.22,5,15.69,14,15.69s13.91-5.31,13.91-15.28V340.66Z" transform="translate(-39.34 -27.07)"/><path id="path3493" class="cls-1" d="M195.31,376.68h0l-.61,1.42h18.79l-.58-1.42h0l-8.85-20.52Zm-5.21,12.46-.36.89-5.21,11.85H171.85l27-61.22H209.7l.23.36,26.75,60.87h-13l-5.5-12.74Z" transform="translate(-39.34 -27.07)"/><path id="path3481" class="cls-1" d="M310.33,340.71h12.89l-21.3,61.22H291.55L277.62,361.7l-13.94,40.22h-10.3L232.05,340.7h13.22l13.52,42.08,13.91-42.13h10.14l13.91,42.13Z" transform="translate(-39.34 -27.07)"/><path id="path3485" class="cls-1" d="M345.49,390.72h34v11.16H333.24V340.71h45.08v11.16H345.5V364.4h22.6v11.16H345.5v15.16Z" transform="translate(-39.34 -27.07)"/><path id="path3489" class="cls-1" d="M394.31,340.66h12.28v61.17H394.31Z" transform="translate(-39.34 -27.07)"/></g><path class="cls-1" d="M96.34,76.59s-28.58,27.1-30,55.86V137c0,.31,0,.61.05.92,1.22,23.21,18.69,37,18.69,37,28.14,27.41,96.28,62,112.12,69.89a1.34,1.34,0,0,0,1.53-.25,1.5,1.5,0,0,0,.36-.53v-.69a.36.36,0,0,1-.05-.15C155.65,148.39,96.34,76.59,96.34,76.59Z" transform="translate(-39.34 -27.07)"/><path class="cls-1" d="M127.86,304.58c14.9-3.71,48.61-27.23,59.75-35.19l0,0c.86-.79.56-1.42.56-1.42a1.53,1.53,0,0,0-1.45-1v0l-113.42,4C85.55,292.78,106.27,309.81,127.86,304.58Z" transform="translate(-39.34 -27.07)"/><path class="cls-1" d="M81.92,253.83a69.48,69.48,0,0,0,21.71,4.76c1.68.31,67.45,0,85.07-.05a1.53,1.53,0,0,0,1.17-.76c0-.08.08-.15.1-.23v-.71a1.88,1.88,0,0,0-.53-.74v0c-49.81-33.61-146.37-85.2-146.37-85.2a66.3,66.3,0,0,0-3.23,20V192a65.11,65.11,0,0,0,6.28,28C58.43,245.95,81.92,253.83,81.92,253.83Z" transform="translate(-39.34 -27.07)"/><path class="cls-1" d="M212.09,235c.76.76,1.35.48,1.35.48a1.41,1.41,0,0,0,1.07-1.41C230.85,70.85,197.37,27.6,197.37,27.6c-4.93.43-18.25,3.48-18.25,3.48-30,7.75-37.12,35-37.12,35a51.53,51.53,0,0,0-2.31,13.58v6.26a74,74,0,0,0,2.47,16.14C152.17,146.54,201.49,219.61,212.09,235Z" transform="translate(-39.34 -27.07)"/><path class="cls-1" d="M234.06,234.15h0a1.37,1.37,0,0,0,.86,1.25,1.32,1.32,0,0,0,1.65-.61c10.88-15.74,59.9-88.43,69.89-132.72,0,0,5.42-21.46.18-36,0,0-7.43-27.69-37.48-35,0,0-8.67-2.19-17.87-3.48C251.32,27.6,217.71,70.88,234.06,234.15Z" transform="translate(-39.34 -27.07)"/><path class="cls-1" d="M375.37,270.92h0L261.79,267v0a1.67,1.67,0,0,0-1.27.86,1.6,1.6,0,0,0,.43,1.55h0c10.85,7.81,43.78,30.79,59.65,35.26a24.33,24.33,0,0,0,6.54,1h2.19C339.9,305.32,358.49,299.92,375.37,270.92Z" transform="translate(-39.34 -27.07)"/><path class="cls-1" d="M249.85,242.69h0a1.55,1.55,0,0,0,.31,1.81,1.85,1.85,0,0,0,.61.25h.56a1.08,1.08,0,0,0,.36-.15c16.27-8.06,83.87-42.46,111.87-69.74,0,0,17.75-14.26,18.66-37.12,2.06-31.75-29.89-61.14-29.9-61.15h0S293.17,148.17,249.85,242.69Z" transform="translate(-39.34 -27.07)"/><path class="cls-1" d="M259.28,256h0l0,0a1.45,1.45,0,0,0-.58,1.63s.48.86,1.17.86v0c17.85,0,85.4.1,87.1-.23a67.55,67.55,0,0,0,19.53-4.48s24.05-7.65,36.51-34.93c0,0,11.13-22.27,2.52-48.28h0C405.47,170.66,309.12,222.39,259.28,256Z" transform="translate(-39.34 -27.07)"/></svg>