<?xml version="1.0"?><svg id="Слой_1" data-name="Слой 1" xmlns="http://www.w3.org/2000/svg" viewBox="0 0 411.9 91.56"><defs><style>.cls-1{fill:none;stroke:#fff;stroke-miterlimit:10;}</style></defs><title>10</title><path class="cls-1" d="M33.33,174.7c7.06-1.93,11.67,1.5,14.47,9.46,1.84,5.22,5.67,9.72,8.31,14.69,2.9,5.46,5.21,4.4,8.3,0a229.89,229.89,0,0,0,12.66-20c2-3.47,17.4-6.22,20.27-3.61,2.08,1.89.27,3.8-.41,5.53C92.19,193,84.75,203.45,76,213c-2.82,3.06-3.15,4.82,0,8.09a128.18,128.18,0,0,1,23.2,34.78c2.27,4.93,1,6.43-4.53,7-11.42,1.15-20-.65-23.6-13.54-1.38-5-5.83-9-8.69-13.62-3.39-5.46-6.11-4.25-9.33.3-4.45,6.28-9.17,12.47-12,19.61-2.33,6-6,7.35-12,7.2-13.7-.36-13.67-.15-7.45-12.71,5.15-10.42,11.53-20,19.89-28,2.89-2.79,2.36-4.29.17-7.07-7.7-9.77-14.67-20-19.32-31.69-3.33-8.34-3.18-8.56,5.66-8.56Z" transform="translate(-17.12 -172.87)"/><path class="cls-1" d="M361.57,174.7c7.68-2.5,11.71,2.35,14.84,10,2.29,5.57,6.13,10.5,9.17,15.78,2,3.51,3.74,2.8,5.85,0a145.6,145.6,0,0,0,12.92-19.86c2.58-4.83,16.31-8.62,20.74-5.61,2.65,1.81.83,4.26.08,6.11a93.38,93.38,0,0,1-19.35,30c-4.41,4.58-4.3,7.16.07,11.81a115.84,115.84,0,0,1,21.68,33.39c1.9,4.35,1.16,6.48-3.85,6.32a7.64,7.64,0,0,0-1.36,0c-11.14,1.65-19.54-.7-23-13.22-1.59-5.78-6.12-10.46-9.93-15.25-2.54-3.2-4.32-3-6.74.12-5.16,6.63-10.06,13.44-13.27,21.2-2.35,5.68-5.9,7.49-12,7.29-14.34-.47-13.77,1-7.66-12.37a88.1,88.1,0,0,1,19.32-27.64c3.52-3.34,3.14-5.28.33-8.68A127,127,0,0,1,351,184.22c-3.88-8.89-3.43-9.51,5.91-9.52Z" transform="translate(-17.12 -172.87)"/><path class="cls-1" d="M202.76,228.86c0-6.78.16-13.56,0-20.33-.7-24.37,13.06-33.26,34-35a74.13,74.13,0,0,1,8.13-.05c11.88.34,12.36,1.15,9.71,12.68-.9,3.9-2.64,5.37-6.55,4.55a25.85,25.85,0,0,0-9.43-.13c-9.21,1.46-13.64,6-13.8,15.36-.28,15.81-.16,31.62-.2,47.43,0,9-.2,9.21-9,9.25-12.88.06-12.88.06-12.88-12.8q0-10.5,0-21Z" transform="translate(-17.12 -172.87)"/><path class="cls-1" d="M171.3,180c-19.08-12.65-47.2-6.61-59.84,12.86-13.54,20.85-9,50.91,10,63.08,16.84,10.79,34.78,9.43,52.71,3,9.85-3.52,9.78-4.22,6.48-14.31-1.47-4.49-3.37-6-7.74-3.37-4.91,3-10.53,4-16.08,5-12.77,2.12-24.67-4-28.6-14.26-1.45-3.79-1.87-6.26,3.77-6,8.11.42,16.26.11,24.4.1q12.88,0,25.76,0c2.6,0,4.85-.15,5.67-3.42C191.37,208.82,183.38,188,171.3,180Zm-10.63,30.25c-4.46-.48-9-.1-13.52-.1-5.41,0-10.83.06-16.24,0-1.58,0-3.71.72-3.6-2.45.25-7.51,9.93-16.62,19.06-17.68a18.15,18.15,0,0,1,19.8,13.72C167.26,208.55,166.25,210.87,160.67,210.27Z" transform="translate(-17.12 -172.87)"/><path class="cls-1" d="M299.94,173.41c-26-.3-45,18.39-45.32,44.57-.34,26.72,17.45,45.3,43.87,45.81,25.23.49,44.33-18.53,44.67-44.49S325.13,173.7,299.94,173.41Zm18,59.86c-3.09,8.73-9.28,13.43-18.09,13.7-9.34.29-16.23-3.86-19.52-12.63a43.82,43.82,0,0,1-.13-31.12,19.58,19.58,0,0,1,19.19-13.36c8.7.18,15.49,5.37,18.6,14.17a48,48,0,0,1,0,29.24Z" transform="translate(-17.12 -172.87)"/></svg>