<?xml version="1.0"?><svg id="Слой_1" data-name="Слой 1" xmlns="http://www.w3.org/2000/svg" viewBox="0 0 393.12 100.05"><defs><style>.cls-1{fill:none;stroke:#fff;stroke-miterlimit:10;fill-rule:evenodd;}</style></defs><title>11</title><polygon class="cls-1" points="68.98 4.28 68.98 18.88 18.56 18.88 18.56 40.63 62.54 40.63 62.54 55.54 18.56 55.54 18.56 82.02 68.89 82.02 68.89 96.03 0.5 96.03 0.5 4.28 68.98 4.28 68.98 4.28"/><path class="cls-1" d="M232.91,194.49c-1.26-7.2-4.88-12.77-18.9-13.1-9.2-.21-15.53,3.11-16.91,9.89-1.33,6.52,3.15,10.76,8.16,12.54,1.72.61,14.37,4.06,17.9,4.69,5,.88,16.29,3,23.06,9.07,13.28,11.85,9.26,32.21-5,41.43-7.81,5-15.47,6.87-29.28,7-4.66,0-16-2.35-22.83-7.26-8.13-5.88-12.69-13.47-12.85-22.85h17.42c.44,3.8,2,7,5.16,10.29,5.17,5.5,12.36,5.39,18.66,5.14s11.66-2.85,14.06-5.12c5.95-5.58,4.11-11.21-.74-16.05-6-6.3-23.91-7.14-35.76-11.17-10-3.4-17.8-11.61-16.91-25.73,1-15.44,15.83-26.3,36.75-26.29,4.91,0,20.38.66,29.32,12,4.79,6.17,5.78,11.4,5.85,15.54Z" transform="translate(-30.38 -166.46)"/><polygon class="cls-1" points="318.43 96.03 318.43 4.28 338.45 4.28 374.83 68.15 374.83 4.28 392.62 4.28 392.62 96.03 373.53 96.03 336.22 30.84 336.22 96.03 318.43 96.03 318.43 96.03"/><path class="cls-1" d="M167,177.9c-5.45-4.71-12.77-7.17-21.94-7.17H105.31v91.76h19V229.34h19.4q15.18,0,23.37-6.69t8.18-22.87q0-14.81-8.18-21.88Zm-14.47,32.41q-3.75,3.29-10.51,3.28H124.27V186.7h17.79q6.75,0,10.51,3t3.75,10.16q0,7.13-3.75,10.41Z" transform="translate(-30.38 -166.46)"/><path class="cls-1" d="M331.37,178.7Q321,168,301.43,168T271.5,178.7q-13.88,12.58-13.88,37.68,0,24.61,13.88,37.68,10.35,10.66,29.94,10.66t29.94-10.66q13.82-13.08,13.82-37.68,0-25.1-13.82-37.68Zm-11.93,61.48q-6.67,8.37-18,8.37t-18.1-8.37q-6.76-8.37-6.76-23.8t6.76-23.8q6.75-8.37,18.1-8.37t18,8.4q6.66,8.4,6.66,23.77t-6.66,23.8Z" transform="translate(-30.38 -166.46)"/></svg>