<svg id="Слой_1" data-name="Слой 1" xmlns="http://www.w3.org/2000/svg" viewBox="0 0 481.54 467.02"><defs><style>.cls-1{fill:none;stroke:#fff;stroke-miterlimit:10;stroke-width:4px;}</style></defs><title>recycle_icon</title><path class="cls-1" d="M96.64,138.86l85.11,50.25s58.4-100.05,71.08-116.8c-17.14-18.37-36.6-44.5-63.48-46.89-13.06-1.16-30,2.92-37.48,14.75L91.66,135.69Z" transform="translate(-9.46 -23.23)"/><path class="cls-1" d="M222.5,28.4l108.65.46s18.56-1.81,29,14.48S390,94,390,94l38-22.18L369.17,171.91,256.9,166.47l40.29-23.08S265,57.83,222.5,28.4Z" transform="translate(-9.46 -23.23)"/><path class="cls-1" d="M423.17,157.68l-83.8,52.42S401.3,308,410.34,327c24.2-6.76,56.35-12,70.85-34.76,7-11.07,11.23-28,4.17-40.06l-57.08-97.43Z" transform="translate(-9.46 -23.23)"/><path class="cls-1" d="M463.28,320.27l-50.43,96.24s-6.93,17.31-26.19,19.05-58.77,3.17-58.77,3.17l2.19,44L268.35,384.4l56.51-97.17,1.95,46.4S417.57,344.49,463.28,320.27Z" transform="translate(-9.46 -23.23)"/><path class="cls-1" d="M232.87,437.38l4-98.75s-115.77-4.11-136.53-7.35c-8.07,23.8-21.88,53.3-11.27,78.11,5.16,12.06,16.77,25.07,30.72,26l112.64,7.84Z" transform="translate(-9.46 -23.23)"/><path class="cls-1" d="M76,378.77,25,282.84s-10.38-15.5-.94-32.38,30.53-50.31,30.53-50.31L17,177.13l116,4.51,48.34,101.48L142,258.55S81.79,327.36,76,378.77Z" transform="translate(-9.46 -23.23)"/></svg>