<svg xmlns="http://www.w3.org/2000/svg" viewBox="0 0 54 55" width="54" height="55">
	<style>
		tspan { white-space:pre }
		.shp0 { fill: #1f5993 } 
	</style>
	<path id="иконка" class="shp0" d="M17.72,37.13c2.22,3.19 4.44,6.04 5.92,7.88c0.21,0.27 0.41,0.52 0.61,0.75h-4.44c-0.5,0 -0.9,0.41 -0.9,0.92c0,0.51 0.4,0.92 0.9,0.92h14.4c0.5,0 0.9,-0.41 0.9,-0.92c0,-0.51 -0.4,-0.92 -0.9,-0.92h-4.44c0.19,-0.24 0.4,-0.49 0.61,-0.75c1.47,-1.83 3.69,-4.69 5.91,-7.88c2.21,-3.1 4.19,-6.36 5.95,-9.74c1.84,-3.67 2.77,-6.72 2.77,-9.06c0.01,-4.86 -1.89,-9.52 -5.27,-12.96c-0.23,-0.24 -0.56,-0.33 -0.88,-0.25c-0.31,0.08 -0.56,0.33 -0.64,0.65c-0.08,0.32 0.01,0.66 0.24,0.89c3.04,3.09 4.75,7.29 4.74,11.67c0,2.05 -0.87,4.82 -2.57,8.22c-1.71,3.31 -3.65,6.49 -5.81,9.52c-2.19,3.15 -4.39,5.97 -5.84,7.78c-0.48,0.6 -0.92,1.13 -1.29,1.59c-0.17,0.2 -0.42,0.32 -0.69,0.32c-0.26,0 -0.51,-0.12 -0.69,-0.32c-0.37,-0.45 -0.81,-0.98 -1.29,-1.59c-1.45,-1.81 -3.65,-4.63 -5.84,-7.78c-2.16,-3.03 -4.1,-6.21 -5.81,-9.52c-1.71,-3.41 -2.57,-6.18 -2.57,-8.22c0,-6.63 3.9,-12.62 9.9,-15.2c4.03,-1.72 8.58,-1.72 12.61,0c0.3,0.13 0.64,0.08 0.89,-0.11c0.26,-0.2 0.39,-0.52 0.35,-0.84c-0.04,-0.32 -0.25,-0.6 -0.54,-0.73c-9.16,-3.93 -19.73,0.44 -23.6,9.75c-0.94,2.26 -1.42,4.68 -1.41,7.13c0,2.34 0.93,5.39 2.77,9.06c1.75,3.39 3.74,6.64 5.94,9.74zM27,10.07c0.5,0 0.9,-0.41 0.9,-0.92c0,-0.51 -0.4,-0.92 -0.9,-0.92c-4.29,0 -7.99,3.08 -8.83,7.37c-0.84,4.28 1.42,8.57 5.38,10.24c3.97,1.67 8.54,0.26 10.93,-3.37c2.39,-3.63 1.92,-8.47 -1.12,-11.56c-0.23,-0.24 -0.56,-0.33 -0.88,-0.25c-0.31,0.08 -0.56,0.33 -0.64,0.65c-0.08,0.32 0.01,0.66 0.25,0.89c2.43,2.47 2.8,6.34 0.9,9.24c-1.91,2.9 -5.57,4.03 -8.74,2.7c-3.17,-1.34 -4.98,-4.77 -4.31,-8.19c0.67,-3.43 3.63,-5.89 7.06,-5.89zM53.66,49.95l-5.53,-10.07c-0.5,-0.89 -1.44,-1.44 -2.45,-1.44h-6.41c-0.5,0 -0.9,0.41 -0.9,0.92c0,0.51 0.4,0.92 0.9,0.92h6.41c0.36,-0.01 0.7,0.18 0.88,0.5l5.53,10.07c0.15,0.26 0.15,0.59 -0.01,0.85c-0.18,0.31 -0.52,0.49 -0.87,0.49h-48.42c-0.35,0.01 -0.69,-0.18 -0.87,-0.49c-0.16,-0.26 -0.16,-0.58 -0.01,-0.85l5.53,-10.07c0.18,-0.32 0.52,-0.51 0.88,-0.5h6.41c0.5,0 0.9,-0.41 0.9,-0.92c0,-0.51 -0.4,-0.92 -0.9,-0.92h-6.41c-1.01,-0.01 -1.95,0.54 -2.45,1.44l-5.53,10.07c-0.46,0.83 -0.45,1.85 0.03,2.66c0.5,0.87 1.43,1.4 2.42,1.39h48.42c0.99,0.01 1.92,-0.52 2.42,-1.39c0.48,-0.82 0.49,-1.84 0.03,-2.66zM44.1,43.02h-3.6c-0.18,0 -0.35,0.05 -0.5,0.15l-2.7,1.83c-0.41,0.28 -0.53,0.85 -0.25,1.27c0.28,0.42 0.83,0.53 1.25,0.25l2.47,-1.68h3.33c0.5,0 0.9,-0.41 0.9,-0.92c0,-0.51 -0.4,-0.92 -0.9,-0.92zM38.7,49.42c0,0.51 0.4,0.92 0.9,0.92h7.2c0.5,0 0.9,-0.41 0.9,-0.92c0,-0.51 -0.4,-0.92 -0.9,-0.92h-7.2c-0.5,0 -0.9,0.41 -0.9,0.92zM16.2,46.68c0.4,0 0.75,-0.26 0.86,-0.65c0.12,-0.39 -0.03,-0.8 -0.36,-1.03l-2.7,-1.83c-0.15,-0.1 -0.32,-0.15 -0.5,-0.15h-3.6c-0.5,0 -0.9,0.41 -0.9,0.92c0,0.51 0.4,0.92 0.9,0.92h3.33l2.47,1.68c0.15,0.1 0.32,0.15 0.5,0.15zM7.2,48.51c-0.5,0 -0.9,0.41 -0.9,0.92c0,0.51 0.4,0.92 0.9,0.92h7.2c0.5,0 0.9,-0.41 0.9,-0.92c0,-0.51 -0.4,-0.92 -0.9,-0.92z" />
</svg>