<svg xmlns="http://www.w3.org/2000/svg" viewBox="0 0 54 55" width="54" height="55">
	<style>
		tspan { white-space:pre }
		.shp0 { fill: #1f5993 } 
	</style>
	<path id="иконка" class="shp0" d="M52.58 41.66L41.65 34.37C40.27 33.45 38.41 33.75 37.38 35.06L34.2 39.16C33.79 39.7 33.04 39.85 32.45 39.53L31.85 39.19C29.84 38.1 27.34 36.73 22.31 31.7C17.28 26.66 15.91 24.16 14.82 22.16L14.48 21.55C14.15 20.96 14.31 20.22 14.84 19.8L18.94 16.62C20.24 15.6 20.55 13.74 19.63 12.35L12.34 1.42C11.4 0.01 9.52 -0.42 8.06 0.46L3.49 3.2C2.06 4.05 1 5.41 0.55 7.02C-1.09 13.01 0.15 23.36 15.39 38.61C27.52 50.74 36.55 54 42.75 54C44.18 54.01 45.6 53.82 46.98 53.45C48.58 53 49.95 51.94 50.8 50.51L53.54 45.94C54.42 44.49 53.99 42.6 52.58 41.66ZM51.99 45.02L49.25 49.59C48.65 50.62 47.66 51.39 46.51 51.71C40.97 53.23 31.3 51.98 16.66 37.34C2.03 22.7 0.77 13.03 2.29 7.49C2.62 6.34 3.38 5.35 4.42 4.74L8.99 2C9.62 1.62 10.44 1.81 10.85 2.42L14.81 8.36L18.13 13.35C18.53 13.95 18.4 14.76 17.83 15.2L13.74 18.39C12.49 19.34 12.14 21.06 12.9 22.43L13.23 23.02C14.38 25.13 15.81 27.75 21.03 32.97C26.25 38.19 28.87 39.62 30.98 40.77L31.57 41.1C32.94 41.86 34.66 41.51 35.61 40.26L38.79 36.17C39.24 35.6 40.05 35.47 40.65 35.87L51.58 43.16C52.19 43.57 52.37 44.39 51.99 45.02ZM30.6 9C39.04 9.01 45.89 15.86 45.9 24.3C45.9 24.8 46.3 25.2 46.79 25.2C47.29 25.2 47.69 24.8 47.69 24.3C47.68 14.86 40.04 7.22 30.6 7.21C30.1 7.21 29.7 7.61 29.7 8.1C29.7 8.6 30.1 9 30.6 9ZM30.6 14.4C36.06 14.41 40.49 18.84 40.5 24.3C40.5 24.8 40.9 25.2 41.4 25.2C41.89 25.2 42.3 24.8 42.3 24.3C42.29 17.85 37.06 12.61 30.6 12.6C30.1 12.6 29.7 13.01 29.7 13.5C29.7 14 30.1 14.4 30.6 14.4ZM30.6 19.8C33.08 19.81 35.09 21.82 35.1 24.3C35.1 24.8 35.5 25.2 36 25.2C36.49 25.2 36.9 24.8 36.9 24.3C36.89 20.83 34.08 18.01 30.6 18C30.1 18 29.7 18.41 29.7 18.9C29.7 19.4 30.1 19.8 30.6 19.8Z" />
</svg>