<svg xmlns="http://www.w3.org/2000/svg" viewBox="0 0 40 39" width="40" height="39">
	<style>
		tspan { white-space:pre }
		.shp0 { fill: #2769ab } 
	</style>
	<path id="иконка" class="shp0" d="M16.05 23.75L11.78 23.75L13.23 20.85L15.69 22.08C15.99 22.23 16.35 22.18 16.59 21.95C16.83 21.73 16.91 21.38 16.78 21.07L12.82 11.57C12.7 11.28 12.41 11.08 12.09 11.08L1.79 11.08C1.47 11.08 1.18 11.28 1.06 11.57C0.94 11.87 1.01 12.21 1.23 12.44L4 15.2L1.37 20.45C0.84 21.5 0.9 22.73 1.52 23.73C1.68 24 1.88 24.24 2.1 24.44L7.64 32.45C8.68 33.94 10.38 34.83 12.2 34.83L16.05 34.83C16.48 34.83 16.84 34.48 16.84 34.04L16.84 24.54C16.84 24.1 16.48 23.75 16.05 23.75ZM3.29 23.37L3.21 23.31C3.08 23.2 2.96 23.06 2.86 22.9C2.54 22.37 2.51 21.72 2.79 21.16L5.67 15.4C5.82 15.09 5.76 14.72 5.52 14.48L3.7 12.67L11.56 12.67L14.5 19.72L13.23 19.08C12.84 18.89 12.37 19.05 12.17 19.44L10.01 23.75L4.39 23.75C3.98 23.75 3.59 23.61 3.29 23.37ZM15.26 33.25L12.2 33.25C10.9 33.25 9.69 32.61 8.95 31.54L4.64 25.33L15.26 25.33L15.26 33.25ZM38.63 20.42L34.95 13.86C34.74 13.48 34.26 13.34 33.88 13.56L26.75 17.52C26.56 17.62 26.42 17.8 26.37 18.01C26.31 18.22 26.35 18.44 26.46 18.63L29.67 23.75L26.34 23.75L26.34 21.38C26.34 21.03 26.12 20.73 25.8 20.62C25.47 20.52 25.11 20.63 24.91 20.91L18.57 29.62C18.36 29.92 18.38 30.33 18.62 30.61L24.96 37.73C25.11 37.91 25.33 38 25.55 38C25.65 38 25.74 37.98 25.83 37.95C26.14 37.83 26.34 37.54 26.34 37.21L26.34 34.83L27.81 34.83C29.63 34.83 31.34 33.94 32.37 32.45C32.37 32.45 38.34 23.99 38.5 23.73C39.12 22.73 39.17 21.5 38.63 20.42ZM31.07 31.54C30.33 32.61 29.11 33.25 27.81 33.25L25.55 33.25C25.11 33.25 24.76 33.6 24.76 34.04L24.76 35.13L20.23 30.03L24.76 23.81L24.76 24.54C24.76 24.98 25.11 25.33 25.55 25.33L35.37 25.33L31.07 31.54ZM37.15 22.9C37.11 22.97 36.75 23.34 36.75 23.34C36.44 23.6 36.05 23.75 35.63 23.75L31.53 23.75L28.25 18.5L33.96 15.33L37.23 21.16C37.51 21.72 37.48 22.37 37.15 22.9ZM22.8 9.99L20.44 11.17C20.14 11.32 19.97 11.65 20.01 11.99C20.06 12.32 20.32 12.59 20.66 12.65L29.37 14.24C29.42 14.25 29.46 14.25 29.51 14.25C29.83 14.25 30.12 14.06 30.24 13.76L34.2 4.26C34.33 3.96 34.25 3.61 34.01 3.38C33.77 3.15 33.41 3.1 33.12 3.25L30.57 4.52L28.73 1.76C28 0.66 26.77 0 25.44 0C25.44 0 15.49 0.03 15.21 0.03C13.5 -0.03 11.91 0.76 10.89 2.13L7.49 6.65C7.36 6.83 7.3 7.07 7.35 7.29C7.4 7.52 7.55 7.71 7.75 7.82L16.46 12.57C16.81 12.77 17.25 12.66 17.48 12.34L21.01 7.4L22.8 9.99ZM25.44 1.58C26.24 1.58 26.97 1.98 27.42 2.64L29.64 5.98C29.87 6.31 30.3 6.43 30.66 6.25L31.92 5.62L29.02 12.57L23.28 11.52L24.32 11C24.53 10.9 24.68 10.71 24.73 10.49C24.79 10.27 24.75 10.03 24.62 9.84L19.44 2.31C19.26 2.05 19.06 1.8 18.84 1.58L25.44 1.58ZM16.6 10.84L9.31 6.87L12.15 3.08C12.87 2.12 13.95 1.56 15.17 1.61C16.37 1.63 17.45 2.21 18.13 3.2L20.06 6.01L16.6 10.84Z" />
</svg>