<?xml version="1.0" encoding="utf-8"?>
<!-- Generator: Adobe Illustrator 21.1.0, SVG Export Plug-In . SVG Version: 6.00 Build 0)  -->
<svg version="1.1" xmlns="http://www.w3.org/2000/svg" xmlns:xlink="http://www.w3.org/1999/xlink" x="0px" y="0px"
	 viewBox="-5 -5 517 517" style="enable-background:new 0 0 512 512;" xml:space="preserve">
<style type="text/css">
	.st0{fill:#FFFFFF;}
</style>
<g id="Capa_1">
	<g>
		<g>
			<g>
				<path class="st0" d="M503.5,128C503.5,128,503.5,128,503.5,128h-128V8.5c0-4.7-3.8-8.5-8.5-8.5c0,0,0,0,0,0H145.1
					c-4.7,0-8.5,3.8-8.5,8.5c0,0,0,0,0,0V128H8.5c-4.7,0-8.5,3.8-8.5,8.5c0,0,0,0,0,0v307.2c0,4.7,3.8,8.5,8.5,8.5c0,0,0,0,0,0h17.8
					c-0.5,2.8-0.8,5.7-0.8,8.5v42.7c0,4.7,3.8,8.5,8.5,8.5c0,0,0,0,0,0h443.7c4.7,0,8.5-3.8,8.5-8.5c0,0,0,0,0,0v-42.7
					c0-2.9-0.3-5.7-0.8-8.5h17.8c4.7,0,8.5-3.8,8.5-8.5c0,0,0,0,0,0V136.5C512,131.8,508.2,128,503.5,128z M366.9,366.9
					c0,9.4-7.6,17.1-17.1,17.1c-9.4,0-17.1-7.6-17.1-17.1c0-9.4,7.6-17.1,17.1-17.1C359.3,349.9,366.9,357.5,366.9,366.9z
					 M162.1,349.9c9.4,0,17.1,7.6,17.1,17.1c0,9.4-7.6,17.1-17.1,17.1c-9.4,0-17.1-7.6-17.1-17.1
					C145.1,357.5,152.7,349.9,162.1,349.9z M110.9,494.9H42.7v-34.1c0-18.9,15.3-34.1,34.1-34.1s34.1,15.3,34.1,34.1V494.9z
					 M59.7,392.5c0-9.4,7.6-17.1,17.1-17.1s17.1,7.6,17.1,17.1c0,9.4-7.6,17.1-17.1,17.1C67.4,409.6,59.7,402,59.7,392.5z
					 M112.2,423.9c-3.2-3.1-6.8-5.8-10.7-7.9c13-13.6,12.5-35.2-1.1-48.3s-35.2-12.5-48.3,1.1c-12.6,13.2-12.6,33.9,0,47.1
					c-8.1,4.5-14.9,11.2-19.6,19.2H17.1V145.1h119.5v199.5c-11.7,13.1-11.3,33.1,0.9,45.8C124.6,397.5,115.5,409.7,112.2,423.9z
					 M196.3,494.9H128v-59.7c0-18.9,15.3-34.1,34.1-34.1s34.1,15.3,34.1,34.1V494.9z M298.7,494.9h-85.3v-59.7
					c0-23.6,19.1-42.7,42.7-42.7c23.6,0,42.7,19.1,42.7,42.7V494.9z M230.4,349.9c0-14.1,11.5-25.6,25.6-25.6
					c14.1,0,25.6,11.5,25.6,25.6s-11.5,25.6-25.6,25.6C241.9,375.5,230.4,364,230.4,349.9z M308,405.9
					c-5.7-10.1-14.2-18.3-24.5-23.6c18-15.2,20.3-42.1,5.1-60.1c-15.2-18-42.1-20.3-60.1-5.1c-18,15.2-20.3,42.1-5.1,60.1
					c1.6,1.9,3.3,3.6,5.1,5.1c-10.3,5.4-18.8,13.6-24.5,23.6c-4.5-6.4-10.4-11.7-17.2-15.5c13.1-13.4,12.8-34.8-0.5-47.9
					c-8.6-8.4-21.1-11.6-32.7-8.4V17.1h204.8V334c-2.8-0.8-5.6-1.2-8.5-1.2c-18.8-0.1-34.1,15.2-34.1,34c0,8.8,3.4,17.3,9.4,23.6
					C318.3,394.2,312.5,399.5,308,405.9z M384,460.8v34.1h-68.3v-59.7c0-18.9,15.3-34.1,34.1-34.1c18.9,0,34.1,15.3,34.1,34.1V460.8
					z M469.3,494.9h-68.3v-34.1c0-18.9,15.3-34.1,34.1-34.1c18.9,0,34.1,15.3,34.1,34.1V494.9z M418.1,392.5
					c0-9.4,7.6-17.1,17.1-17.1c9.4,0,17.1,7.6,17.1,17.1c0,9.4-7.6,17.1-17.1,17.1C425.8,409.6,418.1,402,418.1,392.5z M494.9,435.2
					h-15.5c-4.7-8.1-11.4-14.7-19.6-19.2c13-13.6,12.5-35.2-1.1-48.3c-13.6-13-35.2-12.5-48.3,1.1c-12.6,13.2-12.6,33.9,0,47.1
					c-3.9,2.2-7.5,4.8-10.7,7.9c-3.2-14.3-12.4-26.5-25.2-33.5c12.2-12.7,12.6-32.6,0.9-45.8V145.1h119.5L494.9,435.2L494.9,435.2z"
					/>
			</g>
		</g>
		<g>
			<g>
				<rect x="401.1" y="196.3" class="st0" width="17.1" height="136.5"/>
			</g>
		</g>
		<g>
			<g>
				<rect x="452.3" y="196.3" class="st0" width="17.1" height="136.5"/>
			</g>
		</g>
		<g>
			<g>
				<rect x="42.7" y="196.3" class="st0" width="17.1" height="136.5"/>
			</g>
		</g>
		<g>
			<g>
				<rect x="93.9" y="196.3" class="st0" width="17.1" height="136.5"/>
			</g>
		</g>
	</g>
</g>
<g id="Слой_2">
	<path class="st0" d="M219.8,100.9c0,0,94.3-75,110,32c0,0,30.5-56.4-23.2-80c-6.8-3-14.2-4.1-21.6-3.2
		C268.7,51.7,240,61.1,219.8,100.9z"/>
	<path class="st0" d="M259.3,49.4c0,0-86.3,54.2-26.3,119.2c0,0-40.5,0.2-48.3-46.3S259.3,49.4,259.3,49.4z"/>
	<path class="st0" d="M279.1,78.9c0,0,54.4,66.5-27.1,116.3c0,0,52-7.1,70.7-50.8c3.4-8.1,4.2-17.1,1.9-25.6
		C320.9,105.1,310.1,85.6,279.1,78.9z"/>
	<path class="st0" d="M180.8,111.6c0,0-3.7,104.3,108.5,38.5c0,0-26.6,47.8-63.1,45.5c-3-0.2-6.1-0.3-9.1-0.2
		c-15.6,0.3-63.5-4.9-36.3-85.1"/>
</g>
</svg>
