<?xml version="1.0" encoding="utf-8" standalone="no"?>
<svg xmlns="http://www.w3.org/2000/svg" viewBox="0 0 7 13" >
	
	<path d="M1.19,7.39h1.3v5.42c0,0.11 0.09,0.19 0.19,0.19h2.21c0.11,0 0.19,-0.09 0.19,-0.19v-5.39h1.5c0.1,0 0.18,-0.07 0.19,-0.17l0.23,-1.99c0.01,-0.05 -0.01,-0.11 -0.05,-0.15c-0.04,-0.04 -0.09,-0.06 -0.14,-0.06h-1.72v-1.25c0,-0.38 0.2,-0.57 0.6,-0.57c0.06,0 1.13,0 1.13,0c0.11,0 0.19,-0.09 0.19,-0.19v-1.83c0,-0.11 -0.09,-0.19 -0.19,-0.19h-1.55c-0.01,0 -0.04,0 -0.07,0c-0.27,0 -1.21,0.05 -1.95,0.74c-0.82,0.76 -0.71,1.67 -0.68,1.83v1.46h-1.37c-0.11,0 -0.19,0.09 -0.19,0.19v1.97c0,0.11 0.09,0.19 0.19,0.19z" />
</svg>