<svg xmlns="http://www.w3.org/2000/svg" viewBox="0 0 20 20" width="20" height="20">
	<style>
		tspan { white-space:pre }
		.shp0 { fill: #ffffff } 
	</style>
	<path id="иконка" class="shp0" d="M19.49 14.73L17 12.25C16.31 11.57 15.2 11.57 14.51 12.25L13.38 13.38C12.86 13.9 12.02 13.9 11.5 13.38L6.6 8.48C6.08 7.96 6.08 7.12 6.6 6.6C6.78 6.42 7.31 5.9 7.73 5.47C8.41 4.79 8.42 3.68 7.73 2.99L5.24 0.51C4.56 -0.17 3.44 -0.17 2.76 0.51C2.25 1.02 2.08 1.18 1.85 1.41C-0.62 3.88 -0.62 7.89 1.85 10.36L9.62 18.12C12.09 20.59 16.1 20.59 18.58 18.12L19.49 17.22C20.17 16.53 20.17 15.42 19.49 14.73ZM3.59 1.34C3.82 1.11 4.19 1.11 4.42 1.34L6.9 3.82C7.13 4.05 7.13 4.42 6.9 4.64L6.49 5.06L3.17 1.75L3.59 1.34ZM10.44 17.29L2.68 9.54C0.77 7.63 0.67 4.63 2.36 2.59L5.66 5.89C4.79 6.87 4.83 8.37 5.77 9.31L10.67 14.21C10.67 14.21 10.67 14.21 10.67 14.21C11.61 15.15 13.11 15.18 14.09 14.32L17.4 17.61C15.37 19.3 12.37 19.22 10.44 17.29ZM18.66 16.39L18.24 16.8L14.93 13.49L15.34 13.08C15.57 12.85 15.94 12.85 16.17 13.08L18.66 15.56C18.89 15.79 18.89 16.16 18.66 16.39Z" />
</svg>