<?xml version="1.0"?><svg id="Слой_1" data-name="Слой 1" xmlns="http://www.w3.org/2000/svg" viewBox="0 0 415.62 164.12"><defs><style>.cls-1{fill:none;stroke:#fff;stroke-miterlimit:10;}</style></defs><title>06</title><path class="cls-1" d="M128.83,202.74h87.31a25.11,25.11,0,0,0,7-4.67q4.13-3.6,4.85-6.11H128.83Z" transform="translate(-18.74 -126.07)"/><rect class="cls-1" x="110.08" y="43.97" width="34.49" height="10.78"/><rect class="cls-1" x="110.08" y="109.01" width="34.49" height="11.14"/><path class="cls-1" d="M223.68,218.19q-4.67-4-6.83-4.67h-88V224.3h100.6Q228.35,222.14,223.68,218.19Z" transform="translate(-18.74 -126.07)"/><path class="cls-1" d="M198.17,180.82H234.1q1.08-3.59,1.62-5.57a14.32,14.32,0,0,0,.18-5.21H198.17Z" transform="translate(-18.74 -126.07)"/><rect class="cls-1" x="0.5" y="130.92" width="77.25" height="10.78"/><rect class="cls-1" x="0.5" y="152.84" width="77.25" height="10.78"/><path class="cls-1" d="M207.69,130.35a52.81,52.81,0,0,0-20.3-3.77H107.63v10.78H220.81Q216.85,134.12,207.69,130.35Z" transform="translate(-18.74 -126.07)"/><path class="cls-1" d="M233.38,153.16a19.79,19.79,0,0,0-2.87-5H107.63v11.14H235.18A16.26,16.26,0,0,0,233.38,153.16Z" transform="translate(-18.74 -126.07)"/><polygon class="cls-1" points="249.85 76.67 318.11 76.67 313.8 65.89 249.85 65.89 249.85 76.67"/><rect class="cls-1" x="359.07" y="87.45" width="34.49" height="10.78"/><polygon class="cls-1" points="296.55 22.06 228.65 22.06 228.65 33.2 300.87 33.2 296.55 22.06"/><polygon class="cls-1" points="393.92 43.97 338.59 43.97 334.28 54.75 393.92 54.75 393.92 43.97"/><polygon class="cls-1" points="393.92 65.89 329.97 65.89 325.3 76.67 393.92 76.67 393.92 65.89"/><polygon class="cls-1" points="287.93 0.5 228.65 0.5 228.65 11.28 292.24 11.28 287.93 0.5"/><polygon class="cls-1" points="249.85 54.75 309.13 54.75 305.18 43.97 249.85 43.97 249.85 54.75"/><rect class="cls-1" x="359.07" y="109.01" width="34.49" height="11.14"/><rect class="cls-1" x="22.06" y="65.89" width="34.49" height="10.78"/><polygon class="cls-1" points="295.48 98.23 349.37 98.23 353.68 87.45 291.16 87.45 295.48 98.23"/><rect class="cls-1" x="359.07" y="152.84" width="55.69" height="10.78"/><polygon class="cls-1" points="312.72 141.7 332.13 141.7 336.44 130.92 308.41 130.92 312.72 141.7"/><polygon class="cls-1" points="304.1 120.14 340.75 120.14 345.06 109 299.79 109 304.1 120.14"/><rect class="cls-1" x="249.85" y="87.45" width="34.49" height="10.78"/><rect class="cls-1" x="22.06" y="43.97" width="34.49" height="10.78"/><rect class="cls-1" x="359.07" y="130.92" width="55.69" height="10.78"/><rect class="cls-1" x="249.85" y="109.01" width="34.49" height="11.14"/><polygon class="cls-1" points="342.9 33.2 415.12 33.2 415.12 22.06 347.21 22.06 342.9 33.2"/><polygon class="cls-1" points="351.52 11.28 415.12 11.28 415.12 0.5 355.84 0.5 351.52 11.28"/><rect class="cls-1" x="0.5" y="22.06" width="77.25" height="11.14"/><rect class="cls-1" x="22.06" y="109.01" width="34.49" height="11.14"/><rect class="cls-1" x="22.06" y="87.45" width="34.49" height="10.78"/><rect class="cls-1" x="0.5" y="0.5" width="77.25" height="10.78"/><path class="cls-1" d="M107.63,289.69h80.84a55.64,55.64,0,0,0,19.58-3.41q9.16-3.41,13.47-7.37H107.63Z" transform="translate(-18.74 -126.07)"/><rect class="cls-1" x="228.65" y="130.92" width="55.69" height="10.78"/><path class="cls-1" d="M198.17,235.08v11.14h38.44q.72-5-2.16-11.14Z" transform="translate(-18.74 -126.07)"/><rect class="cls-1" x="228.65" y="152.84" width="55.69" height="10.78"/><path class="cls-1" d="M107.63,267.77h124A19.84,19.84,0,0,0,235.9,257H107.63Z" transform="translate(-18.74 -126.07)"/></svg>