<?xml version="1.0"?><svg id="Слой_1" data-name="Слой 1" xmlns="http://www.w3.org/2000/svg" viewBox="0 0 417.96 169.32"><defs><style>.cls-1{fill:none;stroke:#fff;stroke-miterlimit:10;}</style></defs><title>08</title><g id="g3348"><path id="path3350" class="cls-1" d="M31.63,219.64h-8.9V178.73h8.9V194.9H47.54V178.73h8.9v40.91h-8.9v-17H31.63v17" transform="translate(-21.54 -116.15)"/></g><g id="g3352"><path id="path3354" class="cls-1" d="M69.93,201.7H80.54c-.2-3-1.44-5.11-4.91-5.11C73,196.6,70.72,197.71,69.93,201.7Zm6.74,18.59c-9,0-15.19-5.7-15.19-15.05,0-9.1,6-15.38,14-15.38,8.71,0,13,5.82,13,14.53v3.27H69.93c1,4.51,4.58,5.69,8.12,5.69a13.89,13.89,0,0,0,8-2.36h.33v6.74c-2.36,1.7-5.7,2.55-9.76,2.55" transform="translate(-21.54 -116.15)"/></g><g id="g3356"><path id="path3358" class="cls-1" d="M111.76,202.49l-4.58,17.15H99.39l-8.9-28.8v-.33H99l4.84,17.22,4.58-17.22h6.94L120,207.73l4.91-17.22h8.18v.33l-8.9,28.8h-7.79l-4.65-17.15" transform="translate(-21.54 -116.15)"/></g><g id="g3360"><path id="path3362" class="cls-1" d="M147.57,220.29c-7.07,0-10-2.81-10-9.42V178.74h8.64v31.55c0,2,.78,2.75,2.49,2.75a6.5,6.5,0,0,0,2-.39h.13v7.13a10.4,10.4,0,0,1-3.27.52" transform="translate(-21.54 -116.15)"/></g><g id="g3364"><path id="path3366" class="cls-1" d="M161.71,201.7h10.61c-.2-3-1.44-5.11-4.91-5.11C164.79,196.6,162.5,197.71,161.71,201.7Zm6.74,18.59c-9,0-15.19-5.7-15.19-15.05,0-9.1,6-15.38,14-15.38,8.71,0,13,5.82,13,14.53v3.27H161.71c1,4.51,4.58,5.69,8.12,5.69a13.91,13.91,0,0,0,8.05-2.36h.33v6.74c-2.36,1.7-5.7,2.55-9.76,2.55" transform="translate(-21.54 -116.15)"/></g><g id="g3368"><path id="path3370" class="cls-1" d="M215.78,190.51h6.41v6.94h-6.41V209.3c0,2.55,1,3.73,3.6,3.73a8.21,8.21,0,0,0,2.62-.4h.19v6.81a15.41,15.41,0,0,1-5.3.85c-7,0-9.76-3.21-9.76-10.6V197.45H196.08V209.3c0,2.55,1,3.73,3.6,3.73a8.21,8.21,0,0,0,2.62-.4h.19v6.81a15.42,15.42,0,0,1-5.3.85c-7,0-9.76-3.21-9.76-10.6V197.45H183v-6.94h4.45v-8h8.64v8h11.06v-8h8.64v8" transform="translate(-21.54 -116.15)"/></g><g id="g3372"><path id="path3374" class="cls-1" d="M251.31,198.83c4.52,0,6.68-2.55,6.68-6.22s-2.16-6.35-6.68-6.35h-5.63v12.57ZM267,192.61c0,8.9-6,13.74-15,13.74h-6.35v13.29h-8.9V178.73H252c9,0,15,4.84,15,13.88" transform="translate(-21.54 -116.15)"/></g><g id="g3376"><path id="path3378" class="cls-1" d="M286,210.48V208a10.11,10.11,0,0,0-4.78-1c-2.81,0-4.52,1-4.52,3.4s1.7,3.47,4.25,3.47A5.06,5.06,0,0,0,286,210.48Zm.26,6.28a9.8,9.8,0,0,1-7.73,3.4c-5.69,0-10.34-3.47-10.34-9.62,0-5.69,4.65-9.49,11.33-9.49a23,23,0,0,1,6.48,1v-.52c0-3.14-1.77-4.52-6.41-4.52a16.63,16.63,0,0,0-8.19,2.22h-.32v-6.94a21.52,21.52,0,0,1,10-2.42c8.77,0,13.55,4.19,13.55,11.52v18.26h-8.38v-2.88" transform="translate(-21.54 -116.15)"/></g><g id="g3380"><path id="path3382" class="cls-1" d="M299,205.11c0-9.36,6.62-15.25,15.26-15.25a13.76,13.76,0,0,1,8.12,2.22v7.4h-.33a10.85,10.85,0,0,0-6.67-2.29c-4.32,0-7.59,2.95-7.59,7.92s3.27,7.85,7.59,7.85a10.83,10.83,0,0,0,6.67-2.29h.33v7.4a13.74,13.74,0,0,1-8.12,2.23c-8.64,0-15.26-5.82-15.26-15.18" transform="translate(-21.54 -116.15)"/></g><g id="g3384"><path id="path3386" class="cls-1" d="M336.48,206.42v13.22h-8.64V178.73h8.64V202l8.71-11.52H355v.33l-10.47,13.22L355,219.31v.33h-9.89l-8.64-13.22" transform="translate(-21.54 -116.15)"/></g><g id="g3388"><path id="path3390" class="cls-1" d="M374.39,210.48V208a10.11,10.11,0,0,0-4.78-1c-2.81,0-4.52,1-4.52,3.4s1.7,3.47,4.25,3.47A5.06,5.06,0,0,0,374.39,210.48Zm.26,6.28a9.81,9.81,0,0,1-7.72,3.4c-5.7,0-10.34-3.47-10.34-9.62,0-5.69,4.65-9.49,11.33-9.49a23,23,0,0,1,6.48,1v-.52c0-3.14-1.77-4.52-6.41-4.52a16.63,16.63,0,0,0-8.18,2.22h-.33v-6.94a21.53,21.53,0,0,1,10-2.42c8.78,0,13.55,4.19,13.55,11.52v18.26h-8.38v-2.88" transform="translate(-21.54 -116.15)"/></g><g id="g3392"><path id="path3394" class="cls-1" d="M397.56,195.22c1.57-3.21,3.86-5,7.07-5a6.83,6.83,0,0,1,2.81.52V199h-.32a9.85,9.85,0,0,0-3.8-.65,5.45,5.45,0,0,0-5.5,4.58v16.76h-8.64V190.51h8.38v4.71" transform="translate(-21.54 -116.15)"/></g><g id="g3396"><path id="path3398" class="cls-1" d="M430.36,209.76V200.4a6.4,6.4,0,0,0-5.5-3c-3.79,0-6.35,2.75-6.35,7.72s2.55,7.66,6.35,7.66A6.4,6.4,0,0,0,430.36,209.76Zm.26,6.87c-1.83,2.36-4.71,3.66-8.64,3.66-7.46,0-12.24-6.8-12.24-15.18s4.78-15.25,12.24-15.25c3.8,0,6.54,1.18,8.38,3.34V178.74H439v40.9h-8.38v-3" transform="translate(-21.54 -116.15)"/></g><g id="g3400"><path id="path3402" class="cls-1" d="M22.73,233H48v5H28.43v12.5H46.17v4.85H28.43v13.61H48v5H22.73V233" transform="translate(-21.54 -116.15)"/></g><g id="g3404"><path id="path3406" class="cls-1" d="M68.88,244.52c6.48,0,10.08,4.26,10.08,11.25V273.9H73.53v-18c0-3.73-1.9-6.41-6-6.41a7.57,7.57,0,0,0-7.27,5.24V273.9H54.81v-28.8h5.43v4.19a9.94,9.94,0,0,1,8.64-4.78" transform="translate(-21.54 -116.15)"/></g><g id="g3408"><path id="path3410" class="cls-1" d="M93.56,245.11H101v4.65h-7.4v15.51c0,3.27,1.7,4.39,4.78,4.39a7,7,0,0,0,2.42-.39h.2v4.65a8.84,8.84,0,0,1-3.4.59c-6.74,0-9.43-3.08-9.43-8.7v-16h-5v-4.65h5v-7.65h5.43v7.65" transform="translate(-21.54 -116.15)"/></g><g id="g3412"><path id="path3414" class="cls-1" d="M110.06,256.69H124.4c-.19-4.25-2.29-7.52-6.74-7.52C113.53,249.17,110.84,252.24,110.06,256.69Zm8.58,17.81c-8.45,0-14.21-5.63-14.21-14.66s5.37-15.32,13.16-15.32,12,5.7,12,14.14v2.49H109.86c.59,5.82,4.32,8.64,9.49,8.64a12.27,12.27,0,0,0,8.05-2.62h.2v4.78c-2.36,1.83-5.44,2.55-9,2.55" transform="translate(-21.54 -116.15)"/></g><g id="g3416"><path id="path3418" class="cls-1" d="M141.48,249.56a7.6,7.6,0,0,1,7.13-4.91,6.85,6.85,0,0,1,2.82.46v5.36h-.19a8.44,8.44,0,0,0-3.41-.59c-2.94,0-5.43,2-6.35,5.24V273.9H136v-28.8h5.43v4.45" transform="translate(-21.54 -116.15)"/></g><g id="g3420"><path id="path3422" class="cls-1" d="M169,269.58c5.37,0,8.51-4.25,8.51-10.08s-3.14-10.08-8.51-10.08a8.13,8.13,0,0,0-7.13,4.58v11.07A8.06,8.06,0,0,0,169,269.58Zm.92-25.07c8.57,0,13.16,7,13.16,15s-4.58,15-13.16,15a10.42,10.42,0,0,1-8.05-3.8V285H156.4V245.11h5.44v3.27a10.26,10.26,0,0,1,8.05-3.86" transform="translate(-21.54 -116.15)"/></g><g id="g3424"><path id="path3426" class="cls-1" d="M194.9,249.56a7.6,7.6,0,0,1,7.13-4.91,6.84,6.84,0,0,1,2.81.46v5.36h-.19a8.42,8.42,0,0,0-3.4-.59c-2.95,0-5.43,2-6.35,5.24V273.9h-5.43v-28.8h5.43v4.45" transform="translate(-21.54 -116.15)"/></g><g id="g3428"><path id="path3430" class="cls-1" d="M212.7,233.46a3.4,3.4,0,1,1,0,6.81,3.4,3.4,0,1,1,0-6.81" transform="translate(-21.54 -116.15)"/></g><path id="path3432" class="cls-1" d="M210,273.9h5.44v-28.8H210Z" transform="translate(-21.54 -116.15)"/><g id="g3434"><path id="path3436" class="cls-1" d="M234.83,257.08c4.12,1.31,8.7,3,8.7,8.51,0,5.89-4.84,8.9-11.06,8.9-3.8,0-7.59-.92-9.76-2.62V266.7H223a14.1,14.1,0,0,0,9.43,3.21c3.08,0,5.83-1.18,5.83-3.67s-2.29-3.14-6.81-4.65c-4.06-1.31-8.57-2.82-8.57-8.25s4.58-8.84,10.41-8.84a15.51,15.51,0,0,1,8.84,2.36v5.24h-.19a13.09,13.09,0,0,0-8.51-3c-3.4,0-5.3,1.51-5.3,3.54,0,2.29,2.09,2.94,6.74,4.45" transform="translate(-21.54 -116.15)"/></g><g id="g3438"><path id="path3440" class="cls-1" d="M253.88,256.69h14.33c-.19-4.25-2.29-7.52-6.74-7.52C257.35,249.17,254.67,252.24,253.88,256.69Zm8.57,17.81c-8.44,0-14.2-5.63-14.2-14.66s5.37-15.32,13.16-15.32,12,5.7,12,14.14v2.49H253.69c.59,5.82,4.32,8.64,9.49,8.64a12.26,12.26,0,0,0,8.05-2.62h.2v4.78c-2.35,1.83-5.43,2.55-9,2.55" transform="translate(-21.54 -116.15)"/></g><rect class="cls-1" x="0.5" y="0.5" width="142.9" height="42.66"/></svg>