<?xml version="1.0" encoding="UTF-8" standalone="no"?>
<!-- Generator: Adobe Illustrator 16.0.0, SVG Export Plug-In . SVG Version: 6.00 Build 0)  -->

<svg
   xmlns:dc="http://purl.org/dc/elements/1.1/"
   xmlns:cc="http://creativecommons.org/ns#"
   xmlns:rdf="http://www.w3.org/1999/02/22-rdf-syntax-ns#"
   xmlns:svg="http://www.w3.org/2000/svg"
   xmlns="http://www.w3.org/2000/svg"
   xmlns:sodipodi="http://sodipodi.sourceforge.net/DTD/sodipodi-0.dtd"
   xmlns:inkscape="http://www.inkscape.org/namespaces/inkscape"
   version="1.1"
   x="0px"
   y="0px"
   width="1000"
   height="332.02802"
   viewBox="-3 -3 1003 335.02802"
   enable-background="new 0 0 91.026 30.223"
   xml:space="preserve"
   id="svg2"
   inkscape:version="0.92.2 (5c3e80d, 2017-08-06)"
   sodipodi:docname="Samsung (Print).svg"><metadata
     id="metadata34"><rdf:RDF><cc:Work
         rdf:about=""><dc:format>image/svg+xml</dc:format><dc:type
           rdf:resource="http://purl.org/dc/dcmitype/StillImage" /><dc:title></dc:title></cc:Work></rdf:RDF></metadata><defs
     id="defs32" /><sodipodi:namedview
     pagecolor="#ffffff"
     bordercolor="#666666"
     borderopacity="1"
     objecttolerance="10"
     gridtolerance="10"
     guidetolerance="10"
     inkscape:pageopacity="0"
     inkscape:pageshadow="2"
     inkscape:window-width="1366"
     inkscape:window-height="705"
     id="namedview30"
     showgrid="false"
     inkscape:zoom="0.70710678"
     inkscape:cx="515.01266"
     inkscape:cy="213.66394"
     inkscape:window-x="-8"
     inkscape:window-y="-8"
     inkscape:window-maximized="1"
     inkscape:current-layer="svg2" /><path
     
     d="M 737.9211,0.00342282 C 660.15646,0.16616659 570.21773,8.1281233 475.40701,24.649947 c -120.3558,20.95979 -228.66567,52.23719 -311.40089,87.322403 4.3745,-1.02284 9.19025,-1.48828 14.26369,-1.48828 14.64427,0 34.85944,3.51597 34.85944,26.03715 v 7.25978 h -25.7852 v -6.38283 c 0,-5.64678 -3.56908,-9.38088 -9.61135,-9.38088 -6.47071,0 -8.73514,3.63588 -9.44923,6.93167 -0.24169,1.17549 -0.38304,3.37287 0.11133,5.44921 2.92226,12.10651 42.16405,18.56675 46.52546,40.20906 0.42845,2.20817 1.36178,8.05283 0.10938,16.9844 -2.44986,17.22595 -17.85277,23.61917 -36.55084,23.61917 -19.44511,0 -37.59381,-6.95349 -37.59381,-30.00199 l 0.0215,-8.00978 h 27.72857 v 10.00783 c 0,5.67973 3.93432,9.39454 10.41603,9.39454 6.87719,0 9.20634,-3.50477 10.07423,-6.94337 0.47239,-1.94451 0.77829,-5.16319 -0.23242,-7.66798 -5.31719,-13.38088 -42.04149,-19.50105 -46.55671,-40.62701 -1.0876,-5.18537 -0.97946,-9.32758 -0.23242,-13.97464 1.17828,-7.22055 4.62198,-12.45527 9.61719,-16.08596 C 52.270043,161.30596 -6.7435061,210.67108 0.61718848,252.96085 14.217782,331.0599 248.84336,355.43801 524.64537,307.39649 647.78251,285.95 758.27859,253.69808 841.6947,217.62291 c -4.35345,1.05136 -9.08221,1.53321 -13.95705,1.53321 -18.3575,0 -34.64979,-6.71164 -36.39655,-25.51957 -0.29662,-3.44959 -0.34008,-4.87899 -0.37304,-6.81251 l 0.0215,-43.53718 c 0,-1.83465 0.23,-5.08577 0.42774,-6.81056 2.29607,-19.32427 17.96287,-25.54301 36.32037,-25.54301 18.33554,0 34.38464,6.18578 36.28521,25.54301 0.34057,3.29578 0.23243,6.81056 0.23243,6.81056 v 3.45117 h -26.07036 v -5.79102 c 0.022,0.011 -0.0323,-2.45954 -0.33984,-3.93165 -0.43944,-2.28507 -2.4278,-7.53712 -10.30471,-7.53712 -7.53636,0 -9.74565,4.96641 -10.29494,7.53712 -0.3186,1.36225 -0.43945,3.2071 -0.43945,4.87696 v 47.28328 c -0.022,1.30732 0.0549,2.74712 0.26367,3.9336 0.45042,2.76845 3.05376,7.4922 10.53518,7.4922 7.49241,0 10.10843,-4.73474 10.59181,-7.4922 0.18676,-1.18648 0.24146,-2.62628 0.23047,-3.9336 v -15.00588 h -10.6133 v -15.09573 h 36.66022 v 27.75005 c -0.022,1.93352 -0.0654,3.36292 -0.37305,6.81251 -0.77894,8.49393 -4.53991,14.51268 -10.11135,18.56838 C 950.01396,168.83402 1006.6186,120.53135 999.3805,79.052377 990.46953,27.807088 886.38086,-0.30726983 737.9211,0.00342282 Z M 514.54965,111.05438 c 14.50143,0 34.55084,3.49399 34.55084,25.77348 v 7.18556 H 523.5145 v -6.31837 c 0,-5.60283 -3.49314,-9.25001 -9.48048,-9.25001 -6.4048,0 -8.62527,3.54944 -9.36134,6.8672 -0.25265,1.10958 -0.39477,3.28426 0.0996,5.34961 2.8893,11.98567 41.73485,18.37972 46.0743,39.82429 0.45044,2.16423 1.34029,7.93124 0.0879,16.7969 -2.40593,17.07214 -17.6638,23.37894 -36.16412,23.37894 -19.24737,0 -37.23248,-6.88929 -37.23248,-29.70708 l 0.0332,-7.89845 h 27.44341 l 0.0215,9.91994 c 0,5.5479 3.90111,9.26173 10.29493,9.26173 6.83325,0 9.13847,-3.44935 9.98439,-6.87696 0.46141,-1.94452 0.79122,-5.07579 -0.23047,-7.55861 -5.26227,-13.24905 -41.62498,-19.32429 -46.07429,-40.23053 -1.06563,-5.16339 -0.98923,-9.22748 -0.24219,-13.80862 2.69156,-16.70961 17.59958,-22.70902 35.78131,-22.70902 z m 61.04893,2.66993 h 26.12504 v 76.50598 c 0,1.3403 0.0444,2.8455 0.24218,3.95508 0.56028,2.53774 2.73415,7.50392 9.96291,7.50392 7.17382,0 9.41581,-4.96618 9.91017,-7.50392 0.20873,-1.12057 0.26416,-2.61478 0.24219,-3.95508 v -76.50598 h 26.14652 v 74.16613 c 0.0549,1.90057 -0.13281,5.81133 -0.2207,6.78907 -1.83465,19.3023 -17.09325,25.5645 -36.08794,25.5645 -19.01666,0 -34.28699,-6.2622 -36.09967,-25.5645 -0.0879,-0.97774 -0.27563,-4.8885 -0.2207,-6.78907 z m -323.99662,0.0449 h 45.9864 l 19.08206,103.38689 h -27.80473 l -13.77541,-93.80875 h -0.58398 l -14.16018,93.80875 h -27.91411 z m 87.97475,0 h 42.18562 l 12.76564,79.03138 h 0.55078 l 12.77542,-79.03138 h 42.16413 l 2.24219,103.38689 H 426.4206 l -0.68164,-92.95133 h -0.53711 l -17.28128,92.95133 h -26.23441 l -17.29105,-92.95133 h -0.56055 l -0.64843,92.95133 h -25.89457 z m 337.48882,0 h 38.39459 l 23.76372,81.17396 h 0.57031 l -1.41602,-81.17396 h 25.59575 v 102.31071 h -36.8028 l -25.54105,-83.96498 h -0.54883 l 1.41601,83.96498 h -25.43168 z"
     id="path10"
     inkscape:connector-curvature="0" /></svg>