<?xml version="1.0" encoding="UTF-8" standalone="no"?>
<!-- Created with Inkscape (http://www.inkscape.org/) -->
<svg
   xmlns:dc="http://purl.org/dc/elements/1.1/"
   xmlns:cc="http://web.resource.org/cc/"
   xmlns:rdf="http://www.w3.org/1999/02/22-rdf-syntax-ns#"
   xmlns:svg="http://www.w3.org/2000/svg"
   xmlns="http://www.w3.org/2000/svg"
   xmlns:sodipodi="http://sodipodi.sourceforge.net/DTD/sodipodi-0.dtd"
   xmlns:inkscape="http://www.inkscape.org/namespaces/inkscape"
   width="688.78235"
   height="177.89146"
	viewBox="-3 -3 691.78235 180.89146"
   id="svg10500"
   sodipodi:version="0.32"
   inkscape:version="0.44"
   version="1.0"
   sodipodi:docbase="E:\Logos"
   sodipodi:docname="Acer_Logo.svg">
  <defs
     id="defs10502" />
  <sodipodi:namedview
     id="base"
     pagecolor="#ffffff"
     bordercolor="#666666"
     borderopacity="1.0"
     inkscape:pageopacity="0.0"
     inkscape:pageshadow="2"
     inkscape:zoom="0.35"
     inkscape:cx="350"
     inkscape:cy="520"
     inkscape:document-units="px"
     inkscape:current-layer="layer1"
     inkscape:window-width="925"
     inkscape:window-height="573"
     inkscape:window-x="88"
     inkscape:window-y="88" />
  <metadata
     id="metadata10505">
    <rdf:RDF>
      <cc:Work
         rdf:about="">
        <dc:format>image/svg+xml</dc:format>
        <dc:type
           rdf:resource="http://purl.org/dc/dcmitype/StillImage" />
      </cc:Work>
    </rdf:RDF>
  </metadata>
  <g
     inkscape:label="Ebene 1"
     inkscape:groupmode="layer"
     id="layer1"
     transform="translate(-44.18025,-491.8767)">
    <path
       id="path7092"
       class="ps01"
       d="M 643.78173,530.54739 L 650.73908,498.65183 L 598.51361,499.28433 L 591.46589,524.7646 C 583.24355,481.48435 475.53974,478.23148 421.3264,531.17982 C 367.2035,584.03779 389.70201,628.67341 389.70201,628.67341 C 276.30586,658.58111 286.8774,587.83278 287.5099,583.40536 C 305.40032,503.07925 398.37613,532.44482 398.37613,532.44482 C 398.37613,532.44482 411.83913,506.33205 413.73655,501.18183 C 282.45005,471.27414 243.59714,554.0398 240.34435,557.92509 C 247.39206,533.70982 234.65193,520.33718 231.4895,517.80726 C 197.69652,475.70156 82.945074,505.69962 82.945074,505.69962 L 75.987654,536.23974 C 75.987654,536.23974 190.01631,503.07925 191.9138,544.55245 C 192.63667,548.34738 190.64881,561.72001 190.64881,561.72001 L 130.74312,562.98501 C 130.74312,562.98501 57.464802,566.2378 46.622164,603.82571 C 46.622164,603.82571 44.272902,610.24093 44.182535,619.72827 C 44.092167,629.21554 46.712459,638.88362 46.712459,638.88362 C 65.235384,670.14661 97.673003,664.36389 97.673003,664.36389 L 214.86408,661.1111 L 234.65193,585.30279 L 235.28443,586.56779 C 234.01943,695.53651 386.35886,659.39434 386.35886,659.39434 L 392.05128,634.99833 C 453.85439,706.37915 545.11351,647.91913 548.90843,634.4562 C 552.61298,630.57091 551.98049,620.9932 543.66777,627.40848 C 525.86779,650.99126 498.49002,653.52118 476.17224,654.78618 C 403.52641,651.62376 425.21169,580.87536 435.4219,580.24286 L 515.65758,574.46015 C 568.60591,573.19515 585.14097,545.81745 585.14097,545.81745 L 554.51048,660.4786 L 611.25374,661.4725 C 611.25374,661.4725 625.8913,604.45814 628.5116,594.248 C 643.78173,519.70468 722.7524,534.97474 722.7524,534.97474 C 722.7524,534.97474 732.96261,501.18183 732.96261,497.38691 C 679.47214,484.64677 643.78173,530.54739 643.78173,530.54739 z M 161.64471,631.83591 C 142.12789,638.43186 96.950136,649.36486 89.812054,618.91504 C 86.92066,603.19321 102.64256,582.23073 184.95638,584.67029 C 184.95638,584.67029 181.16146,625.14959 161.64471,631.83591 z M 556.58864,539.9443 C 537.07182,567.05096 480.87069,567.05096 432.34977,571.38802 C 432.34977,571.38802 456.65542,503.80212 527.49418,499.91683 C 527.49418,499.91683 580.80392,505.15749 556.58864,539.9443"
        />
    <path
       id="path7094"
       class="ps02 ps10"
       d="M 643.78173,530.54739 L 650.73908,498.65183 L 598.51361,499.28433 L 591.46589,524.7646 C 583.24355,481.48435 475.53974,478.23148 421.3264,531.17982 C 367.2035,584.03779 389.70201,628.67341 389.70201,628.67341 C 276.30586,658.58111 286.8774,587.83278 287.5099,583.40536 C 305.40032,503.07925 398.37613,532.44482 398.37613,532.44482 C 398.37613,532.44482 411.83913,506.33205 413.73655,501.18183 C 282.45005,471.27414 243.59714,554.0398 240.34435,557.92509 C 247.39206,533.70982 234.65193,520.33718 231.4895,517.80726 C 197.69652,475.70156 82.945074,505.69962 82.945074,505.69962 L 75.987654,536.23974 C 75.987654,536.23974 190.01631,503.07925 191.9138,544.55245 C 192.63667,548.34738 190.64881,561.72001 190.64881,561.72001 L 130.74312,562.98501 C 130.74312,562.98501 57.464802,566.2378 46.622164,603.82571 C 46.622164,603.82571 44.272902,610.24093 44.182535,619.72827 C 44.092167,629.21554 46.712459,638.88362 46.712459,638.88362 C 65.235384,670.14661 97.673003,664.36389 97.673003,664.36389 L 214.86408,661.1111 L 234.65193,585.30279 L 235.28443,586.56779 C 234.01943,695.53651 386.35886,659.39434 386.35886,659.39434 L 392.05128,634.99833 C 453.85439,706.37915 545.11351,647.91913 548.90843,634.4562 C 552.61298,630.57091 551.98049,620.9932 543.66777,627.40848 C 525.86779,650.99126 498.49002,653.52118 476.17224,654.78618 C 403.52641,651.62376 425.21169,580.87536 435.4219,580.24286 L 515.65758,574.46015 C 568.60591,573.19515 585.14097,545.81745 585.14097,545.81745 L 554.51048,660.4786 L 611.25374,661.4725 C 611.25374,661.4725 625.8913,604.45814 628.5116,594.248 C 643.78173,519.70468 722.7524,534.97474 722.7524,534.97474 C 722.7524,534.97474 732.96261,501.18183 732.96261,497.38691 C 679.47214,484.64677 643.78173,530.54739 643.78173,530.54739 z M 161.64471,631.83591 C 142.12789,638.43186 96.950136,649.36486 89.812054,618.91504 C 86.92066,603.19321 102.64256,582.23073 184.95638,584.67029 C 184.95638,584.67029 181.16146,625.14959 161.64471,631.83591 z M 556.58864,539.9443 C 537.07182,567.05096 480.87069,567.05096 432.34977,571.38802 C 432.34977,571.38802 456.65542,503.80212 527.49418,499.91683 C 527.49418,499.91683 580.80392,505.15749 556.58864,539.9443 z "
         />
  </g>
</svg>
